<?xml version="1.0" encoding="UTF-8"?>
<svg xmlns="http://www.w3.org/2000/svg" xmlns:xlink="http://www.w3.org/1999/xlink" width="120pt" height="119.999999pt" viewBox="0 0 120 119.999999" version="1.2">
<defs>
<clipPath id="clip1">
  <path d="M 13 13 L 107 13 L 107 107 L 13 107 Z M 13 13 "/>
</clipPath>
<clipPath id="clip2">
  <path d="M 58.058594 -5.84375 L 125.726562 57.957031 L 61.929688 125.621094 L -5.738281 61.824219 Z M 58.058594 -5.84375 "/>
</clipPath>
<clipPath id="clip3">
  <path d="M 58.058594 -5.84375 L 125.726562 57.957031 L 61.929688 125.621094 L -5.738281 61.824219 Z M 58.058594 -5.84375 "/>
</clipPath>
<clipPath id="clip4">
  <path d="M 58.058594 -5.84375 L 125.617188 57.851562 L 61.921875 125.40625 L -5.632812 61.714844 Z M 58.058594 -5.84375 "/>
</clipPath>
<clipPath id="clip5">
  <path d="M 72 58 L 75 58 L 75 61 L 72 61 Z M 72 58 "/>
</clipPath>
<clipPath id="clip6">
  <path d="M 58.058594 -5.84375 L 125.726562 57.957031 L 61.929688 125.621094 L -5.738281 61.824219 Z M 58.058594 -5.84375 "/>
</clipPath>
<clipPath id="clip7">
  <path d="M 58.058594 -5.84375 L 125.726562 57.957031 L 61.929688 125.621094 L -5.738281 61.824219 Z M 58.058594 -5.84375 "/>
</clipPath>
<clipPath id="clip8">
  <path d="M 58.058594 -5.84375 L 125.617188 57.851562 L 61.921875 125.40625 L -5.632812 61.714844 Z M 58.058594 -5.84375 "/>
</clipPath>
<clipPath id="clip9">
  <path d="M 75 61 L 78 61 L 78 64 L 75 64 Z M 75 61 "/>
</clipPath>
<clipPath id="clip10">
  <path d="M 58.058594 -5.84375 L 125.726562 57.957031 L 61.929688 125.621094 L -5.738281 61.824219 Z M 58.058594 -5.84375 "/>
</clipPath>
<clipPath id="clip11">
  <path d="M 58.058594 -5.84375 L 125.726562 57.957031 L 61.929688 125.621094 L -5.738281 61.824219 Z M 58.058594 -5.84375 "/>
</clipPath>
<clipPath id="clip12">
  <path d="M 58.058594 -5.84375 L 125.617188 57.851562 L 61.921875 125.40625 L -5.632812 61.714844 Z M 58.058594 -5.84375 "/>
</clipPath>
<clipPath id="clip13">
  <path d="M 77 63 L 80 63 L 80 66 L 77 66 Z M 77 63 "/>
</clipPath>
<clipPath id="clip14">
  <path d="M 58.058594 -5.84375 L 125.726562 57.957031 L 61.929688 125.621094 L -5.738281 61.824219 Z M 58.058594 -5.84375 "/>
</clipPath>
<clipPath id="clip15">
  <path d="M 58.058594 -5.84375 L 125.726562 57.957031 L 61.929688 125.621094 L -5.738281 61.824219 Z M 58.058594 -5.84375 "/>
</clipPath>
<clipPath id="clip16">
  <path d="M 58.058594 -5.84375 L 125.617188 57.851562 L 61.921875 125.40625 L -5.632812 61.714844 Z M 58.058594 -5.84375 "/>
</clipPath>
<clipPath id="clip17">
  <path d="M 72 63 L 75 63 L 75 67 L 72 67 Z M 72 63 "/>
</clipPath>
<clipPath id="clip18">
  <path d="M 58.058594 -5.84375 L 125.726562 57.957031 L 61.929688 125.621094 L -5.738281 61.824219 Z M 58.058594 -5.84375 "/>
</clipPath>
<clipPath id="clip19">
  <path d="M 58.058594 -5.84375 L 125.726562 57.957031 L 61.929688 125.621094 L -5.738281 61.824219 Z M 58.058594 -5.84375 "/>
</clipPath>
<clipPath id="clip20">
  <path d="M 58.058594 -5.84375 L 125.617188 57.851562 L 61.921875 125.40625 L -5.632812 61.714844 Z M 58.058594 -5.84375 "/>
</clipPath>
<clipPath id="clip21">
  <path d="M 75 66 L 78 66 L 78 69 L 75 69 Z M 75 66 "/>
</clipPath>
<clipPath id="clip22">
  <path d="M 58.058594 -5.84375 L 125.726562 57.957031 L 61.929688 125.621094 L -5.738281 61.824219 Z M 58.058594 -5.84375 "/>
</clipPath>
<clipPath id="clip23">
  <path d="M 58.058594 -5.84375 L 125.726562 57.957031 L 61.929688 125.621094 L -5.738281 61.824219 Z M 58.058594 -5.84375 "/>
</clipPath>
<clipPath id="clip24">
  <path d="M 58.058594 -5.84375 L 125.617188 57.851562 L 61.921875 125.40625 L -5.632812 61.714844 Z M 58.058594 -5.84375 "/>
</clipPath>
<clipPath id="clip25">
  <path d="M 77 53 L 80 53 L 80 56 L 77 56 Z M 77 53 "/>
</clipPath>
<clipPath id="clip26">
  <path d="M 58.058594 -5.84375 L 125.726562 57.957031 L 61.929688 125.621094 L -5.738281 61.824219 Z M 58.058594 -5.84375 "/>
</clipPath>
<clipPath id="clip27">
  <path d="M 58.058594 -5.84375 L 125.726562 57.957031 L 61.929688 125.621094 L -5.738281 61.824219 Z M 58.058594 -5.84375 "/>
</clipPath>
<clipPath id="clip28">
  <path d="M 58.058594 -5.84375 L 125.617188 57.851562 L 61.921875 125.40625 L -5.632812 61.714844 Z M 58.058594 -5.84375 "/>
</clipPath>
<clipPath id="clip29">
  <path d="M 74 56 L 77 56 L 77 59 L 74 59 Z M 74 56 "/>
</clipPath>
<clipPath id="clip30">
  <path d="M 58.058594 -5.84375 L 125.726562 57.957031 L 61.929688 125.621094 L -5.738281 61.824219 Z M 58.058594 -5.84375 "/>
</clipPath>
<clipPath id="clip31">
  <path d="M 58.058594 -5.84375 L 125.726562 57.957031 L 61.929688 125.621094 L -5.738281 61.824219 Z M 58.058594 -5.84375 "/>
</clipPath>
<clipPath id="clip32">
  <path d="M 58.058594 -5.84375 L 125.617188 57.851562 L 61.921875 125.40625 L -5.632812 61.714844 Z M 58.058594 -5.84375 "/>
</clipPath>
<clipPath id="clip33">
  <path d="M 77 58 L 80 58 L 80 61 L 77 61 Z M 77 58 "/>
</clipPath>
<clipPath id="clip34">
  <path d="M 58.058594 -5.84375 L 125.726562 57.957031 L 61.929688 125.621094 L -5.738281 61.824219 Z M 58.058594 -5.84375 "/>
</clipPath>
<clipPath id="clip35">
  <path d="M 58.058594 -5.84375 L 125.726562 57.957031 L 61.929688 125.621094 L -5.738281 61.824219 Z M 58.058594 -5.84375 "/>
</clipPath>
<clipPath id="clip36">
  <path d="M 58.058594 -5.84375 L 125.617188 57.851562 L 61.921875 125.40625 L -5.632812 61.714844 Z M 58.058594 -5.84375 "/>
</clipPath>
<clipPath id="clip37">
  <path d="M 77 68 L 81 68 L 81 72 L 77 72 Z M 77 68 "/>
</clipPath>
<clipPath id="clip38">
  <path d="M 58.058594 -5.84375 L 125.726562 57.957031 L 61.929688 125.621094 L -5.738281 61.824219 Z M 58.058594 -5.84375 "/>
</clipPath>
<clipPath id="clip39">
  <path d="M 58.058594 -5.84375 L 125.726562 57.957031 L 61.929688 125.621094 L -5.738281 61.824219 Z M 58.058594 -5.84375 "/>
</clipPath>
<clipPath id="clip40">
  <path d="M 58.058594 -5.84375 L 125.617188 57.851562 L 61.921875 125.40625 L -5.632812 61.714844 Z M 58.058594 -5.84375 "/>
</clipPath>
<clipPath id="clip41">
  <path d="M 75 71 L 78 71 L 78 74 L 75 74 Z M 75 71 "/>
</clipPath>
<clipPath id="clip42">
  <path d="M 58.058594 -5.84375 L 125.726562 57.957031 L 61.929688 125.621094 L -5.738281 61.824219 Z M 58.058594 -5.84375 "/>
</clipPath>
<clipPath id="clip43">
  <path d="M 58.058594 -5.84375 L 125.726562 57.957031 L 61.929688 125.621094 L -5.738281 61.824219 Z M 58.058594 -5.84375 "/>
</clipPath>
<clipPath id="clip44">
  <path d="M 58.058594 -5.84375 L 125.617188 57.851562 L 61.921875 125.40625 L -5.632812 61.714844 Z M 58.058594 -5.84375 "/>
</clipPath>
<clipPath id="clip45">
  <path d="M 72 74 L 75 74 L 75 77 L 72 77 Z M 72 74 "/>
</clipPath>
<clipPath id="clip46">
  <path d="M 58.058594 -5.84375 L 125.726562 57.957031 L 61.929688 125.621094 L -5.738281 61.824219 Z M 58.058594 -5.84375 "/>
</clipPath>
<clipPath id="clip47">
  <path d="M 58.058594 -5.84375 L 125.726562 57.957031 L 61.929688 125.621094 L -5.738281 61.824219 Z M 58.058594 -5.84375 "/>
</clipPath>
<clipPath id="clip48">
  <path d="M 58.058594 -5.84375 L 125.617188 57.851562 L 61.921875 125.40625 L -5.632812 61.714844 Z M 58.058594 -5.84375 "/>
</clipPath>
<clipPath id="clip49">
  <path d="M 64 72 L 68 72 L 68 75 L 64 75 Z M 64 72 "/>
</clipPath>
<clipPath id="clip50">
  <path d="M 58.058594 -5.84375 L 125.726562 57.957031 L 61.929688 125.621094 L -5.738281 61.824219 Z M 58.058594 -5.84375 "/>
</clipPath>
<clipPath id="clip51">
  <path d="M 58.058594 -5.84375 L 125.726562 57.957031 L 61.929688 125.621094 L -5.738281 61.824219 Z M 58.058594 -5.84375 "/>
</clipPath>
<clipPath id="clip52">
  <path d="M 58.058594 -5.84375 L 125.617188 57.851562 L 61.921875 125.40625 L -5.632812 61.714844 Z M 58.058594 -5.84375 "/>
</clipPath>
<clipPath id="clip53">
  <path d="M 67 74 L 70 74 L 70 77 L 67 77 Z M 67 74 "/>
</clipPath>
<clipPath id="clip54">
  <path d="M 58.058594 -5.84375 L 125.726562 57.957031 L 61.929688 125.621094 L -5.738281 61.824219 Z M 58.058594 -5.84375 "/>
</clipPath>
<clipPath id="clip55">
  <path d="M 58.058594 -5.84375 L 125.726562 57.957031 L 61.929688 125.621094 L -5.738281 61.824219 Z M 58.058594 -5.84375 "/>
</clipPath>
<clipPath id="clip56">
  <path d="M 58.058594 -5.84375 L 125.617188 57.851562 L 61.921875 125.40625 L -5.632812 61.714844 Z M 58.058594 -5.84375 "/>
</clipPath>
<clipPath id="clip57">
  <path d="M 70 77 L 73 77 L 73 80 L 70 80 Z M 70 77 "/>
</clipPath>
<clipPath id="clip58">
  <path d="M 58.058594 -5.84375 L 125.726562 57.957031 L 61.929688 125.621094 L -5.738281 61.824219 Z M 58.058594 -5.84375 "/>
</clipPath>
<clipPath id="clip59">
  <path d="M 58.058594 -5.84375 L 125.726562 57.957031 L 61.929688 125.621094 L -5.738281 61.824219 Z M 58.058594 -5.84375 "/>
</clipPath>
<clipPath id="clip60">
  <path d="M 58.058594 -5.84375 L 125.617188 57.851562 L 61.921875 125.40625 L -5.632812 61.714844 Z M 58.058594 -5.84375 "/>
</clipPath>
<clipPath id="clip61">
  <path d="M 78 74 L 81 74 L 81 77 L 78 77 Z M 78 74 "/>
</clipPath>
<clipPath id="clip62">
  <path d="M 58.058594 -5.84375 L 125.726562 57.957031 L 61.929688 125.621094 L -5.738281 61.824219 Z M 58.058594 -5.84375 "/>
</clipPath>
<clipPath id="clip63">
  <path d="M 58.058594 -5.84375 L 125.726562 57.957031 L 61.929688 125.621094 L -5.738281 61.824219 Z M 58.058594 -5.84375 "/>
</clipPath>
<clipPath id="clip64">
  <path d="M 58.058594 -5.84375 L 125.617188 57.851562 L 61.921875 125.40625 L -5.632812 61.714844 Z M 58.058594 -5.84375 "/>
</clipPath>
<clipPath id="clip65">
  <path d="M 75 77 L 78 77 L 78 80 L 75 80 Z M 75 77 "/>
</clipPath>
<clipPath id="clip66">
  <path d="M 58.058594 -5.84375 L 125.726562 57.957031 L 61.929688 125.621094 L -5.738281 61.824219 Z M 58.058594 -5.84375 "/>
</clipPath>
<clipPath id="clip67">
  <path d="M 58.058594 -5.84375 L 125.726562 57.957031 L 61.929688 125.621094 L -5.738281 61.824219 Z M 58.058594 -5.84375 "/>
</clipPath>
<clipPath id="clip68">
  <path d="M 58.058594 -5.84375 L 125.617188 57.851562 L 61.921875 125.40625 L -5.632812 61.714844 Z M 58.058594 -5.84375 "/>
</clipPath>
<clipPath id="clip69">
  <path d="M 67 64 L 70 64 L 70 67 L 67 67 Z M 67 64 "/>
</clipPath>
<clipPath id="clip70">
  <path d="M 58.058594 -5.84375 L 125.726562 57.957031 L 61.929688 125.621094 L -5.738281 61.824219 Z M 58.058594 -5.84375 "/>
</clipPath>
<clipPath id="clip71">
  <path d="M 58.058594 -5.84375 L 125.726562 57.957031 L 61.929688 125.621094 L -5.738281 61.824219 Z M 58.058594 -5.84375 "/>
</clipPath>
<clipPath id="clip72">
  <path d="M 58.058594 -5.84375 L 125.617188 57.851562 L 61.921875 125.40625 L -5.632812 61.714844 Z M 58.058594 -5.84375 "/>
</clipPath>
<clipPath id="clip73">
  <path d="M 72 69 L 75 69 L 75 72 L 72 72 Z M 72 69 "/>
</clipPath>
<clipPath id="clip74">
  <path d="M 58.058594 -5.84375 L 125.726562 57.957031 L 61.929688 125.621094 L -5.738281 61.824219 Z M 58.058594 -5.84375 "/>
</clipPath>
<clipPath id="clip75">
  <path d="M 58.058594 -5.84375 L 125.726562 57.957031 L 61.929688 125.621094 L -5.738281 61.824219 Z M 58.058594 -5.84375 "/>
</clipPath>
<clipPath id="clip76">
  <path d="M 58.058594 -5.84375 L 125.617188 57.851562 L 61.921875 125.40625 L -5.632812 61.714844 Z M 58.058594 -5.84375 "/>
</clipPath>
<clipPath id="clip77">
  <path d="M 64 66 L 67 66 L 67 70 L 64 70 Z M 64 66 "/>
</clipPath>
<clipPath id="clip78">
  <path d="M 58.058594 -5.84375 L 125.726562 57.957031 L 61.929688 125.621094 L -5.738281 61.824219 Z M 58.058594 -5.84375 "/>
</clipPath>
<clipPath id="clip79">
  <path d="M 58.058594 -5.84375 L 125.726562 57.957031 L 61.929688 125.621094 L -5.738281 61.824219 Z M 58.058594 -5.84375 "/>
</clipPath>
<clipPath id="clip80">
  <path d="M 58.058594 -5.84375 L 125.617188 57.851562 L 61.921875 125.40625 L -5.632812 61.714844 Z M 58.058594 -5.84375 "/>
</clipPath>
<clipPath id="clip81">
  <path d="M 70 66 L 73 66 L 73 69 L 70 69 Z M 70 66 "/>
</clipPath>
<clipPath id="clip82">
  <path d="M 58.058594 -5.84375 L 125.726562 57.957031 L 61.929688 125.621094 L -5.738281 61.824219 Z M 58.058594 -5.84375 "/>
</clipPath>
<clipPath id="clip83">
  <path d="M 58.058594 -5.84375 L 125.726562 57.957031 L 61.929688 125.621094 L -5.738281 61.824219 Z M 58.058594 -5.84375 "/>
</clipPath>
<clipPath id="clip84">
  <path d="M 58.058594 -5.84375 L 125.617188 57.851562 L 61.921875 125.40625 L -5.632812 61.714844 Z M 58.058594 -5.84375 "/>
</clipPath>
<clipPath id="clip85">
  <path d="M 67 69 L 70 69 L 70 72 L 67 72 Z M 67 69 "/>
</clipPath>
<clipPath id="clip86">
  <path d="M 58.058594 -5.84375 L 125.726562 57.957031 L 61.929688 125.621094 L -5.738281 61.824219 Z M 58.058594 -5.84375 "/>
</clipPath>
<clipPath id="clip87">
  <path d="M 58.058594 -5.84375 L 125.726562 57.957031 L 61.929688 125.621094 L -5.738281 61.824219 Z M 58.058594 -5.84375 "/>
</clipPath>
<clipPath id="clip88">
  <path d="M 58.058594 -5.84375 L 125.617188 57.851562 L 61.921875 125.40625 L -5.632812 61.714844 Z M 58.058594 -5.84375 "/>
</clipPath>
<clipPath id="clip89">
  <path d="M 70 71 L 73 71 L 73 75 L 70 75 Z M 70 71 "/>
</clipPath>
<clipPath id="clip90">
  <path d="M 58.058594 -5.84375 L 125.726562 57.957031 L 61.929688 125.621094 L -5.738281 61.824219 Z M 58.058594 -5.84375 "/>
</clipPath>
<clipPath id="clip91">
  <path d="M 58.058594 -5.84375 L 125.726562 57.957031 L 61.929688 125.621094 L -5.738281 61.824219 Z M 58.058594 -5.84375 "/>
</clipPath>
<clipPath id="clip92">
  <path d="M 58.058594 -5.84375 L 125.617188 57.851562 L 61.921875 125.40625 L -5.632812 61.714844 Z M 58.058594 -5.84375 "/>
</clipPath>
<clipPath id="clip93">
  <path d="M 59 72 L 62 72 L 62 75 L 59 75 Z M 59 72 "/>
</clipPath>
<clipPath id="clip94">
  <path d="M 58.058594 -5.84375 L 125.726562 57.957031 L 61.929688 125.621094 L -5.738281 61.824219 Z M 58.058594 -5.84375 "/>
</clipPath>
<clipPath id="clip95">
  <path d="M 58.058594 -5.84375 L 125.726562 57.957031 L 61.929688 125.621094 L -5.738281 61.824219 Z M 58.058594 -5.84375 "/>
</clipPath>
<clipPath id="clip96">
  <path d="M 58.058594 -5.84375 L 125.617188 57.851562 L 61.921875 125.40625 L -5.632812 61.714844 Z M 58.058594 -5.84375 "/>
</clipPath>
<clipPath id="clip97">
  <path d="M 62 74 L 65 74 L 65 77 L 62 77 Z M 62 74 "/>
</clipPath>
<clipPath id="clip98">
  <path d="M 58.058594 -5.84375 L 125.726562 57.957031 L 61.929688 125.621094 L -5.738281 61.824219 Z M 58.058594 -5.84375 "/>
</clipPath>
<clipPath id="clip99">
  <path d="M 58.058594 -5.84375 L 125.726562 57.957031 L 61.929688 125.621094 L -5.738281 61.824219 Z M 58.058594 -5.84375 "/>
</clipPath>
<clipPath id="clip100">
  <path d="M 58.058594 -5.84375 L 125.617188 57.851562 L 61.921875 125.40625 L -5.632812 61.714844 Z M 58.058594 -5.84375 "/>
</clipPath>
<clipPath id="clip101">
  <path d="M 65 77 L 68 77 L 68 80 L 65 80 Z M 65 77 "/>
</clipPath>
<clipPath id="clip102">
  <path d="M 58.058594 -5.84375 L 125.726562 57.957031 L 61.929688 125.621094 L -5.738281 61.824219 Z M 58.058594 -5.84375 "/>
</clipPath>
<clipPath id="clip103">
  <path d="M 58.058594 -5.84375 L 125.726562 57.957031 L 61.929688 125.621094 L -5.738281 61.824219 Z M 58.058594 -5.84375 "/>
</clipPath>
<clipPath id="clip104">
  <path d="M 58.058594 -5.84375 L 125.617188 57.851562 L 61.921875 125.40625 L -5.632812 61.714844 Z M 58.058594 -5.84375 "/>
</clipPath>
<clipPath id="clip105">
  <path d="M 57 74 L 60 74 L 60 77 L 57 77 Z M 57 74 "/>
</clipPath>
<clipPath id="clip106">
  <path d="M 58.058594 -5.84375 L 125.726562 57.957031 L 61.929688 125.621094 L -5.738281 61.824219 Z M 58.058594 -5.84375 "/>
</clipPath>
<clipPath id="clip107">
  <path d="M 58.058594 -5.84375 L 125.726562 57.957031 L 61.929688 125.621094 L -5.738281 61.824219 Z M 58.058594 -5.84375 "/>
</clipPath>
<clipPath id="clip108">
  <path d="M 58.058594 -5.84375 L 125.617188 57.851562 L 61.921875 125.40625 L -5.632812 61.714844 Z M 58.058594 -5.84375 "/>
</clipPath>
<clipPath id="clip109">
  <path d="M 60 77 L 63 77 L 63 80 L 60 80 Z M 60 77 "/>
</clipPath>
<clipPath id="clip110">
  <path d="M 58.058594 -5.84375 L 125.726562 57.957031 L 61.929688 125.621094 L -5.738281 61.824219 Z M 58.058594 -5.84375 "/>
</clipPath>
<clipPath id="clip111">
  <path d="M 58.058594 -5.84375 L 125.726562 57.957031 L 61.929688 125.621094 L -5.738281 61.824219 Z M 58.058594 -5.84375 "/>
</clipPath>
<clipPath id="clip112">
  <path d="M 58.058594 -5.84375 L 125.617188 57.851562 L 61.921875 125.40625 L -5.632812 61.714844 Z M 58.058594 -5.84375 "/>
</clipPath>
<clipPath id="clip113">
  <path d="M 54 77 L 58 77 L 58 80 L 54 80 Z M 54 77 "/>
</clipPath>
<clipPath id="clip114">
  <path d="M 58.058594 -5.84375 L 125.726562 57.957031 L 61.929688 125.621094 L -5.738281 61.824219 Z M 58.058594 -5.84375 "/>
</clipPath>
<clipPath id="clip115">
  <path d="M 58.058594 -5.84375 L 125.726562 57.957031 L 61.929688 125.621094 L -5.738281 61.824219 Z M 58.058594 -5.84375 "/>
</clipPath>
<clipPath id="clip116">
  <path d="M 58.058594 -5.84375 L 125.617188 57.851562 L 61.921875 125.40625 L -5.632812 61.714844 Z M 58.058594 -5.84375 "/>
</clipPath>
<clipPath id="clip117">
  <path d="M 74 51 L 77 51 L 77 54 L 74 54 Z M 74 51 "/>
</clipPath>
<clipPath id="clip118">
  <path d="M 58.058594 -5.84375 L 125.726562 57.957031 L 61.929688 125.621094 L -5.738281 61.824219 Z M 58.058594 -5.84375 "/>
</clipPath>
<clipPath id="clip119">
  <path d="M 58.058594 -5.84375 L 125.726562 57.957031 L 61.929688 125.621094 L -5.738281 61.824219 Z M 58.058594 -5.84375 "/>
</clipPath>
<clipPath id="clip120">
  <path d="M 58.058594 -5.84375 L 125.617188 57.851562 L 61.921875 125.40625 L -5.632812 61.714844 Z M 58.058594 -5.84375 "/>
</clipPath>
<clipPath id="clip121">
  <path d="M 72 53 L 75 53 L 75 57 L 72 57 Z M 72 53 "/>
</clipPath>
<clipPath id="clip122">
  <path d="M 58.058594 -5.84375 L 125.726562 57.957031 L 61.929688 125.621094 L -5.738281 61.824219 Z M 58.058594 -5.84375 "/>
</clipPath>
<clipPath id="clip123">
  <path d="M 58.058594 -5.84375 L 125.726562 57.957031 L 61.929688 125.621094 L -5.738281 61.824219 Z M 58.058594 -5.84375 "/>
</clipPath>
<clipPath id="clip124">
  <path d="M 58.058594 -5.84375 L 125.617188 57.851562 L 61.921875 125.40625 L -5.632812 61.714844 Z M 58.058594 -5.84375 "/>
</clipPath>
<clipPath id="clip125">
  <path d="M 64 61 L 68 61 L 68 64 L 64 64 Z M 64 61 "/>
</clipPath>
<clipPath id="clip126">
  <path d="M 58.058594 -5.84375 L 125.726562 57.957031 L 61.929688 125.621094 L -5.738281 61.824219 Z M 58.058594 -5.84375 "/>
</clipPath>
<clipPath id="clip127">
  <path d="M 58.058594 -5.84375 L 125.726562 57.957031 L 61.929688 125.621094 L -5.738281 61.824219 Z M 58.058594 -5.84375 "/>
</clipPath>
<clipPath id="clip128">
  <path d="M 58.058594 -5.84375 L 125.617188 57.851562 L 61.921875 125.40625 L -5.632812 61.714844 Z M 58.058594 -5.84375 "/>
</clipPath>
<clipPath id="clip129">
  <path d="M 62 64 L 65 64 L 65 67 L 62 67 Z M 62 64 "/>
</clipPath>
<clipPath id="clip130">
  <path d="M 58.058594 -5.84375 L 125.726562 57.957031 L 61.929688 125.621094 L -5.738281 61.824219 Z M 58.058594 -5.84375 "/>
</clipPath>
<clipPath id="clip131">
  <path d="M 58.058594 -5.84375 L 125.726562 57.957031 L 61.929688 125.621094 L -5.738281 61.824219 Z M 58.058594 -5.84375 "/>
</clipPath>
<clipPath id="clip132">
  <path d="M 58.058594 -5.84375 L 125.617188 57.851562 L 61.921875 125.40625 L -5.632812 61.714844 Z M 58.058594 -5.84375 "/>
</clipPath>
<clipPath id="clip133">
  <path d="M 54 72 L 57 72 L 57 75 L 54 75 Z M 54 72 "/>
</clipPath>
<clipPath id="clip134">
  <path d="M 58.058594 -5.84375 L 125.726562 57.957031 L 61.929688 125.621094 L -5.738281 61.824219 Z M 58.058594 -5.84375 "/>
</clipPath>
<clipPath id="clip135">
  <path d="M 58.058594 -5.84375 L 125.726562 57.957031 L 61.929688 125.621094 L -5.738281 61.824219 Z M 58.058594 -5.84375 "/>
</clipPath>
<clipPath id="clip136">
  <path d="M 58.058594 -5.84375 L 125.617188 57.851562 L 61.921875 125.40625 L -5.632812 61.714844 Z M 58.058594 -5.84375 "/>
</clipPath>
<clipPath id="clip137">
  <path d="M 52 74 L 55 74 L 55 78 L 52 78 Z M 52 74 "/>
</clipPath>
<clipPath id="clip138">
  <path d="M 58.058594 -5.84375 L 125.726562 57.957031 L 61.929688 125.621094 L -5.738281 61.824219 Z M 58.058594 -5.84375 "/>
</clipPath>
<clipPath id="clip139">
  <path d="M 58.058594 -5.84375 L 125.726562 57.957031 L 61.929688 125.621094 L -5.738281 61.824219 Z M 58.058594 -5.84375 "/>
</clipPath>
<clipPath id="clip140">
  <path d="M 58.058594 -5.84375 L 125.617188 57.851562 L 61.921875 125.40625 L -5.632812 61.714844 Z M 58.058594 -5.84375 "/>
</clipPath>
<clipPath id="clip141">
  <path d="M 72 48 L 75 48 L 75 52 L 72 52 Z M 72 48 "/>
</clipPath>
<clipPath id="clip142">
  <path d="M 58.058594 -5.84375 L 125.726562 57.957031 L 61.929688 125.621094 L -5.738281 61.824219 Z M 58.058594 -5.84375 "/>
</clipPath>
<clipPath id="clip143">
  <path d="M 58.058594 -5.84375 L 125.726562 57.957031 L 61.929688 125.621094 L -5.738281 61.824219 Z M 58.058594 -5.84375 "/>
</clipPath>
<clipPath id="clip144">
  <path d="M 58.058594 -5.84375 L 125.617188 57.851562 L 61.921875 125.40625 L -5.632812 61.714844 Z M 58.058594 -5.84375 "/>
</clipPath>
<clipPath id="clip145">
  <path d="M 62 59 L 65 59 L 65 62 L 62 62 Z M 62 59 "/>
</clipPath>
<clipPath id="clip146">
  <path d="M 58.058594 -5.84375 L 125.726562 57.957031 L 61.929688 125.621094 L -5.738281 61.824219 Z M 58.058594 -5.84375 "/>
</clipPath>
<clipPath id="clip147">
  <path d="M 58.058594 -5.84375 L 125.726562 57.957031 L 61.929688 125.621094 L -5.738281 61.824219 Z M 58.058594 -5.84375 "/>
</clipPath>
<clipPath id="clip148">
  <path d="M 58.058594 -5.84375 L 125.617188 57.851562 L 61.921875 125.40625 L -5.632812 61.714844 Z M 58.058594 -5.84375 "/>
</clipPath>
<clipPath id="clip149">
  <path d="M 59 62 L 62 62 L 62 65 L 59 65 Z M 59 62 "/>
</clipPath>
<clipPath id="clip150">
  <path d="M 58.058594 -5.84375 L 125.726562 57.957031 L 61.929688 125.621094 L -5.738281 61.824219 Z M 58.058594 -5.84375 "/>
</clipPath>
<clipPath id="clip151">
  <path d="M 58.058594 -5.84375 L 125.726562 57.957031 L 61.929688 125.621094 L -5.738281 61.824219 Z M 58.058594 -5.84375 "/>
</clipPath>
<clipPath id="clip152">
  <path d="M 58.058594 -5.84375 L 125.617188 57.851562 L 61.921875 125.40625 L -5.632812 61.714844 Z M 58.058594 -5.84375 "/>
</clipPath>
<clipPath id="clip153">
  <path d="M 60 57 L 63 57 L 63 60 L 60 60 Z M 60 57 "/>
</clipPath>
<clipPath id="clip154">
  <path d="M 58.058594 -5.84375 L 125.726562 57.957031 L 61.929688 125.621094 L -5.738281 61.824219 Z M 58.058594 -5.84375 "/>
</clipPath>
<clipPath id="clip155">
  <path d="M 58.058594 -5.84375 L 125.726562 57.957031 L 61.929688 125.621094 L -5.738281 61.824219 Z M 58.058594 -5.84375 "/>
</clipPath>
<clipPath id="clip156">
  <path d="M 58.058594 -5.84375 L 125.617188 57.851562 L 61.921875 125.40625 L -5.632812 61.714844 Z M 58.058594 -5.84375 "/>
</clipPath>
<clipPath id="clip157">
  <path d="M 57 59 L 60 59 L 60 63 L 57 63 Z M 57 59 "/>
</clipPath>
<clipPath id="clip158">
  <path d="M 58.058594 -5.84375 L 125.726562 57.957031 L 61.929688 125.621094 L -5.738281 61.824219 Z M 58.058594 -5.84375 "/>
</clipPath>
<clipPath id="clip159">
  <path d="M 58.058594 -5.84375 L 125.726562 57.957031 L 61.929688 125.621094 L -5.738281 61.824219 Z M 58.058594 -5.84375 "/>
</clipPath>
<clipPath id="clip160">
  <path d="M 58.058594 -5.84375 L 125.617188 57.851562 L 61.921875 125.40625 L -5.632812 61.714844 Z M 58.058594 -5.84375 "/>
</clipPath>
<clipPath id="clip161">
  <path d="M 57 54 L 60 54 L 60 57 L 57 57 Z M 57 54 "/>
</clipPath>
<clipPath id="clip162">
  <path d="M 58.058594 -5.84375 L 125.726562 57.957031 L 61.929688 125.621094 L -5.738281 61.824219 Z M 58.058594 -5.84375 "/>
</clipPath>
<clipPath id="clip163">
  <path d="M 58.058594 -5.84375 L 125.726562 57.957031 L 61.929688 125.621094 L -5.738281 61.824219 Z M 58.058594 -5.84375 "/>
</clipPath>
<clipPath id="clip164">
  <path d="M 58.058594 -5.84375 L 125.617188 57.851562 L 61.921875 125.40625 L -5.632812 61.714844 Z M 58.058594 -5.84375 "/>
</clipPath>
<clipPath id="clip165">
  <path d="M 54 57 L 57 57 L 57 60 L 54 60 Z M 54 57 "/>
</clipPath>
<clipPath id="clip166">
  <path d="M 58.058594 -5.84375 L 125.726562 57.957031 L 61.929688 125.621094 L -5.738281 61.824219 Z M 58.058594 -5.84375 "/>
</clipPath>
<clipPath id="clip167">
  <path d="M 58.058594 -5.84375 L 125.726562 57.957031 L 61.929688 125.621094 L -5.738281 61.824219 Z M 58.058594 -5.84375 "/>
</clipPath>
<clipPath id="clip168">
  <path d="M 58.058594 -5.84375 L 125.617188 57.851562 L 61.921875 125.40625 L -5.632812 61.714844 Z M 58.058594 -5.84375 "/>
</clipPath>
<clipPath id="clip169">
  <path d="M 54 52 L 58 52 L 58 55 L 54 55 Z M 54 52 "/>
</clipPath>
<clipPath id="clip170">
  <path d="M 58.058594 -5.84375 L 125.726562 57.957031 L 61.929688 125.621094 L -5.738281 61.824219 Z M 58.058594 -5.84375 "/>
</clipPath>
<clipPath id="clip171">
  <path d="M 58.058594 -5.84375 L 125.726562 57.957031 L 61.929688 125.621094 L -5.738281 61.824219 Z M 58.058594 -5.84375 "/>
</clipPath>
<clipPath id="clip172">
  <path d="M 58.058594 -5.84375 L 125.617188 57.851562 L 61.921875 125.40625 L -5.632812 61.714844 Z M 58.058594 -5.84375 "/>
</clipPath>
<clipPath id="clip173">
  <path d="M 52 55 L 55 55 L 55 58 L 52 58 Z M 52 55 "/>
</clipPath>
<clipPath id="clip174">
  <path d="M 58.058594 -5.84375 L 125.726562 57.957031 L 61.929688 125.621094 L -5.738281 61.824219 Z M 58.058594 -5.84375 "/>
</clipPath>
<clipPath id="clip175">
  <path d="M 58.058594 -5.84375 L 125.726562 57.957031 L 61.929688 125.621094 L -5.738281 61.824219 Z M 58.058594 -5.84375 "/>
</clipPath>
<clipPath id="clip176">
  <path d="M 58.058594 -5.84375 L 125.617188 57.851562 L 61.921875 125.40625 L -5.632812 61.714844 Z M 58.058594 -5.84375 "/>
</clipPath>
<clipPath id="clip177">
  <path d="M 52 49 L 55 49 L 55 53 L 52 53 Z M 52 49 "/>
</clipPath>
<clipPath id="clip178">
  <path d="M 58.058594 -5.84375 L 125.726562 57.957031 L 61.929688 125.621094 L -5.738281 61.824219 Z M 58.058594 -5.84375 "/>
</clipPath>
<clipPath id="clip179">
  <path d="M 58.058594 -5.84375 L 125.726562 57.957031 L 61.929688 125.621094 L -5.738281 61.824219 Z M 58.058594 -5.84375 "/>
</clipPath>
<clipPath id="clip180">
  <path d="M 58.058594 -5.84375 L 125.617188 57.851562 L 61.921875 125.40625 L -5.632812 61.714844 Z M 58.058594 -5.84375 "/>
</clipPath>
<clipPath id="clip181">
  <path d="M 49 52 L 52 52 L 52 56 L 49 56 Z M 49 52 "/>
</clipPath>
<clipPath id="clip182">
  <path d="M 58.058594 -5.84375 L 125.726562 57.957031 L 61.929688 125.621094 L -5.738281 61.824219 Z M 58.058594 -5.84375 "/>
</clipPath>
<clipPath id="clip183">
  <path d="M 58.058594 -5.84375 L 125.726562 57.957031 L 61.929688 125.621094 L -5.738281 61.824219 Z M 58.058594 -5.84375 "/>
</clipPath>
<clipPath id="clip184">
  <path d="M 58.058594 -5.84375 L 125.617188 57.851562 L 61.921875 125.40625 L -5.632812 61.714844 Z M 58.058594 -5.84375 "/>
</clipPath>
<clipPath id="clip185">
  <path d="M 50 47 L 53 47 L 53 50 L 50 50 Z M 50 47 "/>
</clipPath>
<clipPath id="clip186">
  <path d="M 58.058594 -5.84375 L 125.726562 57.957031 L 61.929688 125.621094 L -5.738281 61.824219 Z M 58.058594 -5.84375 "/>
</clipPath>
<clipPath id="clip187">
  <path d="M 58.058594 -5.84375 L 125.726562 57.957031 L 61.929688 125.621094 L -5.738281 61.824219 Z M 58.058594 -5.84375 "/>
</clipPath>
<clipPath id="clip188">
  <path d="M 58.058594 -5.84375 L 125.617188 57.851562 L 61.921875 125.40625 L -5.632812 61.714844 Z M 58.058594 -5.84375 "/>
</clipPath>
<clipPath id="clip189">
  <path d="M 47 50 L 50 50 L 50 53 L 47 53 Z M 47 50 "/>
</clipPath>
<clipPath id="clip190">
  <path d="M 58.058594 -5.84375 L 125.726562 57.957031 L 61.929688 125.621094 L -5.738281 61.824219 Z M 58.058594 -5.84375 "/>
</clipPath>
<clipPath id="clip191">
  <path d="M 58.058594 -5.84375 L 125.726562 57.957031 L 61.929688 125.621094 L -5.738281 61.824219 Z M 58.058594 -5.84375 "/>
</clipPath>
<clipPath id="clip192">
  <path d="M 58.058594 -5.84375 L 125.617188 57.851562 L 61.921875 125.40625 L -5.632812 61.714844 Z M 58.058594 -5.84375 "/>
</clipPath>
<clipPath id="clip193">
  <path d="M 47 45 L 50 45 L 50 48 L 47 48 Z M 47 45 "/>
</clipPath>
<clipPath id="clip194">
  <path d="M 58.058594 -5.84375 L 125.726562 57.957031 L 61.929688 125.621094 L -5.738281 61.824219 Z M 58.058594 -5.84375 "/>
</clipPath>
<clipPath id="clip195">
  <path d="M 58.058594 -5.84375 L 125.726562 57.957031 L 61.929688 125.621094 L -5.738281 61.824219 Z M 58.058594 -5.84375 "/>
</clipPath>
<clipPath id="clip196">
  <path d="M 58.058594 -5.84375 L 125.617188 57.851562 L 61.921875 125.40625 L -5.632812 61.714844 Z M 58.058594 -5.84375 "/>
</clipPath>
<clipPath id="clip197">
  <path d="M 44 48 L 47 48 L 47 51 L 44 51 Z M 44 48 "/>
</clipPath>
<clipPath id="clip198">
  <path d="M 58.058594 -5.84375 L 125.726562 57.957031 L 61.929688 125.621094 L -5.738281 61.824219 Z M 58.058594 -5.84375 "/>
</clipPath>
<clipPath id="clip199">
  <path d="M 58.058594 -5.84375 L 125.726562 57.957031 L 61.929688 125.621094 L -5.738281 61.824219 Z M 58.058594 -5.84375 "/>
</clipPath>
<clipPath id="clip200">
  <path d="M 58.058594 -5.84375 L 125.617188 57.851562 L 61.921875 125.40625 L -5.632812 61.714844 Z M 58.058594 -5.84375 "/>
</clipPath>
<clipPath id="clip201">
  <path d="M 44 42 L 47 42 L 47 45 L 44 45 Z M 44 42 "/>
</clipPath>
<clipPath id="clip202">
  <path d="M 58.058594 -5.84375 L 125.726562 57.957031 L 61.929688 125.621094 L -5.738281 61.824219 Z M 58.058594 -5.84375 "/>
</clipPath>
<clipPath id="clip203">
  <path d="M 58.058594 -5.84375 L 125.726562 57.957031 L 61.929688 125.621094 L -5.738281 61.824219 Z M 58.058594 -5.84375 "/>
</clipPath>
<clipPath id="clip204">
  <path d="M 58.058594 -5.84375 L 125.617188 57.851562 L 61.921875 125.40625 L -5.632812 61.714844 Z M 58.058594 -5.84375 "/>
</clipPath>
<clipPath id="clip205">
  <path d="M 42 45 L 45 45 L 45 48 L 42 48 Z M 42 45 "/>
</clipPath>
<clipPath id="clip206">
  <path d="M 58.058594 -5.84375 L 125.726562 57.957031 L 61.929688 125.621094 L -5.738281 61.824219 Z M 58.058594 -5.84375 "/>
</clipPath>
<clipPath id="clip207">
  <path d="M 58.058594 -5.84375 L 125.726562 57.957031 L 61.929688 125.621094 L -5.738281 61.824219 Z M 58.058594 -5.84375 "/>
</clipPath>
<clipPath id="clip208">
  <path d="M 58.058594 -5.84375 L 125.617188 57.851562 L 61.921875 125.40625 L -5.632812 61.714844 Z M 58.058594 -5.84375 "/>
</clipPath>
<clipPath id="clip209">
  <path d="M 42 40 L 45 40 L 45 43 L 42 43 Z M 42 40 "/>
</clipPath>
<clipPath id="clip210">
  <path d="M 58.058594 -5.84375 L 125.726562 57.957031 L 61.929688 125.621094 L -5.738281 61.824219 Z M 58.058594 -5.84375 "/>
</clipPath>
<clipPath id="clip211">
  <path d="M 58.058594 -5.84375 L 125.726562 57.957031 L 61.929688 125.621094 L -5.738281 61.824219 Z M 58.058594 -5.84375 "/>
</clipPath>
<clipPath id="clip212">
  <path d="M 58.058594 -5.84375 L 125.617188 57.851562 L 61.921875 125.40625 L -5.632812 61.714844 Z M 58.058594 -5.84375 "/>
</clipPath>
<clipPath id="clip213">
  <path d="M 39 43 L 42 43 L 42 46 L 39 46 Z M 39 43 "/>
</clipPath>
<clipPath id="clip214">
  <path d="M 58.058594 -5.84375 L 125.726562 57.957031 L 61.929688 125.621094 L -5.738281 61.824219 Z M 58.058594 -5.84375 "/>
</clipPath>
<clipPath id="clip215">
  <path d="M 58.058594 -5.84375 L 125.726562 57.957031 L 61.929688 125.621094 L -5.738281 61.824219 Z M 58.058594 -5.84375 "/>
</clipPath>
<clipPath id="clip216">
  <path d="M 58.058594 -5.84375 L 125.617188 57.851562 L 61.921875 125.40625 L -5.632812 61.714844 Z M 58.058594 -5.84375 "/>
</clipPath>
<clipPath id="clip217">
  <path d="M 49 72 L 53 72 L 53 75 L 49 75 Z M 49 72 "/>
</clipPath>
<clipPath id="clip218">
  <path d="M 58.058594 -5.84375 L 125.726562 57.957031 L 61.929688 125.621094 L -5.738281 61.824219 Z M 58.058594 -5.84375 "/>
</clipPath>
<clipPath id="clip219">
  <path d="M 58.058594 -5.84375 L 125.726562 57.957031 L 61.929688 125.621094 L -5.738281 61.824219 Z M 58.058594 -5.84375 "/>
</clipPath>
<clipPath id="clip220">
  <path d="M 58.058594 -5.84375 L 125.617188 57.851562 L 61.921875 125.40625 L -5.632812 61.714844 Z M 58.058594 -5.84375 "/>
</clipPath>
</defs>
<g id="surface1">
<g clip-path="url(#clip1)" clip-rule="nonzero">
<g clip-path="url(#clip2)" clip-rule="nonzero">
<g clip-path="url(#clip3)" clip-rule="nonzero">
<g clip-path="url(#clip4)" clip-rule="nonzero">
<path style=" stroke:none;fill-rule:nonzero;fill:rgb(6.269836%,5.879211%,5.099487%);fill-opacity:1;" d="M 93.773438 91.640625 C 76.179688 110.296875 46.796875 111.164062 28.140625 93.574219 C 9.484375 75.984375 8.621094 46.601562 26.210938 27.945312 C 43.800781 9.289062 73.183594 8.421875 91.839844 26.011719 C 110.496094 43.601562 111.363281 72.984375 93.773438 91.640625 "/>
</g>
</g>
</g>
</g>
<g clip-path="url(#clip5)" clip-rule="nonzero">
<g clip-path="url(#clip6)" clip-rule="nonzero">
<g clip-path="url(#clip7)" clip-rule="nonzero">
<g clip-path="url(#clip8)" clip-rule="nonzero">
<path style=" stroke:none;fill-rule:nonzero;fill:rgb(100%,100%,100%);fill-opacity:1;" d="M 74.25 60.566406 C 73.851562 60.992188 73.179688 61.011719 72.757812 60.613281 C 72.332031 60.210938 72.3125 59.542969 72.714844 59.117188 C 73.113281 58.695312 73.78125 58.675781 74.207031 59.074219 C 74.632812 59.476562 74.652344 60.144531 74.25 60.566406 "/>
</g>
</g>
</g>
</g>
<g clip-path="url(#clip9)" clip-rule="nonzero">
<g clip-path="url(#clip10)" clip-rule="nonzero">
<g clip-path="url(#clip11)" clip-rule="nonzero">
<g clip-path="url(#clip12)" clip-rule="nonzero">
<path style=" stroke:none;fill-rule:nonzero;fill:rgb(100%,100%,100%);fill-opacity:1;" d="M 76.921875 63.085938 C 76.519531 63.507812 75.851562 63.527344 75.425781 63.128906 C 75 62.726562 74.980469 62.058594 75.382812 61.636719 C 75.78125 61.210938 76.449219 61.191406 76.875 61.589844 C 77.300781 61.992188 77.320312 62.660156 76.921875 63.085938 "/>
</g>
</g>
</g>
</g>
<g clip-path="url(#clip13)" clip-rule="nonzero">
<g clip-path="url(#clip14)" clip-rule="nonzero">
<g clip-path="url(#clip15)" clip-rule="nonzero">
<g clip-path="url(#clip16)" clip-rule="nonzero">
<path style=" stroke:none;fill-rule:nonzero;fill:rgb(100%,100%,100%);fill-opacity:1;" d="M 79.589844 65.601562 C 79.1875 66.027344 78.519531 66.046875 78.09375 65.644531 C 77.671875 65.246094 77.652344 64.574219 78.050781 64.152344 C 78.453125 63.726562 79.121094 63.707031 79.546875 64.109375 C 79.96875 64.507812 79.988281 65.175781 79.589844 65.601562 "/>
</g>
</g>
</g>
</g>
<g clip-path="url(#clip17)" clip-rule="nonzero">
<g clip-path="url(#clip18)" clip-rule="nonzero">
<g clip-path="url(#clip19)" clip-rule="nonzero">
<g clip-path="url(#clip20)" clip-rule="nonzero">
<path style=" stroke:none;fill-rule:nonzero;fill:rgb(100%,100%,100%);fill-opacity:1;" d="M 74.464844 65.691406 C 74.0625 66.117188 73.394531 66.136719 72.96875 65.734375 C 72.542969 65.335938 72.523438 64.667969 72.925781 64.242188 C 73.324219 63.816406 73.992188 63.796875 74.417969 64.199219 C 74.84375 64.597656 74.863281 65.265625 74.464844 65.691406 "/>
</g>
</g>
</g>
</g>
<g clip-path="url(#clip21)" clip-rule="nonzero">
<g clip-path="url(#clip22)" clip-rule="nonzero">
<g clip-path="url(#clip23)" clip-rule="nonzero">
<g clip-path="url(#clip24)" clip-rule="nonzero">
<path style=" stroke:none;fill-rule:nonzero;fill:rgb(100%,100%,100%);fill-opacity:1;" d="M 77.132812 68.207031 C 76.730469 68.632812 76.0625 68.652344 75.636719 68.253906 C 75.214844 67.851562 75.195312 67.183594 75.59375 66.757812 C 75.992188 66.332031 76.664062 66.3125 77.085938 66.714844 C 77.511719 67.113281 77.53125 67.785156 77.132812 68.207031 "/>
</g>
</g>
</g>
</g>
<g clip-path="url(#clip25)" clip-rule="nonzero">
<g clip-path="url(#clip26)" clip-rule="nonzero">
<g clip-path="url(#clip27)" clip-rule="nonzero">
<g clip-path="url(#clip28)" clip-rule="nonzero">
<path style=" stroke:none;fill-rule:nonzero;fill:rgb(100%,100%,100%);fill-opacity:1;" d="M 79.085938 55.441406 C 78.683594 55.867188 78.015625 55.886719 77.589844 55.484375 C 77.164062 55.085938 77.144531 54.417969 77.546875 53.992188 C 77.945312 53.566406 78.613281 53.546875 79.039062 53.949219 C 79.464844 54.347656 79.484375 55.015625 79.085938 55.441406 "/>
</g>
</g>
</g>
</g>
<g clip-path="url(#clip29)" clip-rule="nonzero">
<g clip-path="url(#clip30)" clip-rule="nonzero">
<g clip-path="url(#clip31)" clip-rule="nonzero">
<g clip-path="url(#clip32)" clip-rule="nonzero">
<path style=" stroke:none;fill-rule:nonzero;fill:rgb(100%,100%,100%);fill-opacity:1;" d="M 76.625 58.046875 C 76.226562 58.472656 75.558594 58.492188 75.132812 58.09375 C 74.707031 57.691406 74.6875 57.023438 75.089844 56.597656 C 75.488281 56.171875 76.15625 56.152344 76.582031 56.554688 C 77.007812 56.953125 77.027344 57.625 76.625 58.046875 "/>
</g>
</g>
</g>
</g>
<g clip-path="url(#clip33)" clip-rule="nonzero">
<g clip-path="url(#clip34)" clip-rule="nonzero">
<g clip-path="url(#clip35)" clip-rule="nonzero">
<g clip-path="url(#clip36)" clip-rule="nonzero">
<path style=" stroke:none;fill-rule:nonzero;fill:rgb(100%,100%,100%);fill-opacity:1;" d="M 79.296875 60.566406 C 78.894531 60.988281 78.226562 61.007812 77.800781 60.609375 C 77.378906 60.207031 77.359375 59.539062 77.757812 59.113281 C 78.160156 58.691406 78.828125 58.671875 79.25 59.070312 C 79.675781 59.472656 79.695312 60.140625 79.296875 60.566406 "/>
</g>
</g>
</g>
</g>
<g clip-path="url(#clip37)" clip-rule="nonzero">
<g clip-path="url(#clip38)" clip-rule="nonzero">
<g clip-path="url(#clip39)" clip-rule="nonzero">
<g clip-path="url(#clip40)" clip-rule="nonzero">
<path style=" stroke:none;fill-rule:nonzero;fill:rgb(100%,100%,100%);fill-opacity:1;" d="M 79.800781 70.722656 C 79.402344 71.148438 78.730469 71.167969 78.308594 70.769531 C 77.882812 70.367188 77.863281 69.699219 78.261719 69.273438 C 78.664062 68.851562 79.332031 68.832031 79.757812 69.230469 C 80.179688 69.632812 80.199219 70.300781 79.800781 70.722656 "/>
</g>
</g>
</g>
</g>
<g clip-path="url(#clip41)" clip-rule="nonzero">
<g clip-path="url(#clip42)" clip-rule="nonzero">
<g clip-path="url(#clip43)" clip-rule="nonzero">
<g clip-path="url(#clip44)" clip-rule="nonzero">
<path style=" stroke:none;fill-rule:nonzero;fill:rgb(100%,100%,100%);fill-opacity:1;" d="M 77.3125 73.363281 C 76.914062 73.789062 76.246094 73.804688 75.820312 73.40625 C 75.394531 73.007812 75.375 72.335938 75.777344 71.914062 C 76.175781 71.488281 76.84375 71.46875 77.269531 71.867188 C 77.695312 72.269531 77.714844 72.9375 77.3125 73.363281 "/>
</g>
</g>
</g>
</g>
<g clip-path="url(#clip45)" clip-rule="nonzero">
<g clip-path="url(#clip46)" clip-rule="nonzero">
<g clip-path="url(#clip47)" clip-rule="nonzero">
<g clip-path="url(#clip48)" clip-rule="nonzero">
<path style=" stroke:none;fill-rule:nonzero;fill:rgb(100%,100%,100%);fill-opacity:1;" d="M 74.554688 76.289062 C 74.15625 76.710938 73.488281 76.730469 73.0625 76.332031 C 72.636719 75.929688 72.617188 75.261719 73.019531 74.835938 C 73.417969 74.414062 74.085938 74.394531 74.511719 74.792969 C 74.9375 75.195312 74.957031 75.863281 74.554688 76.289062 "/>
</g>
</g>
</g>
</g>
<g clip-path="url(#clip49)" clip-rule="nonzero">
<g clip-path="url(#clip50)" clip-rule="nonzero">
<g clip-path="url(#clip51)" clip-rule="nonzero">
<g clip-path="url(#clip52)" clip-rule="nonzero">
<path style=" stroke:none;fill-rule:nonzero;fill:rgb(100%,100%,100%);fill-opacity:1;" d="M 66.730469 73.890625 C 66.332031 74.316406 65.660156 74.335938 65.238281 73.9375 C 64.8125 73.535156 64.792969 72.867188 65.191406 72.441406 C 65.59375 72.015625 66.261719 71.996094 66.6875 72.398438 C 67.109375 72.796875 67.132812 73.46875 66.730469 73.890625 "/>
</g>
</g>
</g>
</g>
<g clip-path="url(#clip53)" clip-rule="nonzero">
<g clip-path="url(#clip54)" clip-rule="nonzero">
<g clip-path="url(#clip55)" clip-rule="nonzero">
<g clip-path="url(#clip56)" clip-rule="nonzero">
<path style=" stroke:none;fill-rule:nonzero;fill:rgb(100%,100%,100%);fill-opacity:1;" d="M 69.398438 76.410156 C 69 76.832031 68.332031 76.851562 67.90625 76.453125 C 67.480469 76.050781 67.460938 75.382812 67.863281 74.957031 C 68.261719 74.535156 68.929688 74.515625 69.355469 74.914062 C 69.78125 75.316406 69.800781 75.984375 69.398438 76.410156 "/>
</g>
</g>
</g>
</g>
<g clip-path="url(#clip57)" clip-rule="nonzero">
<g clip-path="url(#clip58)" clip-rule="nonzero">
<g clip-path="url(#clip59)" clip-rule="nonzero">
<g clip-path="url(#clip60)" clip-rule="nonzero">
<path style=" stroke:none;fill-rule:nonzero;fill:rgb(100%,100%,100%);fill-opacity:1;" d="M 72.070312 78.925781 C 71.667969 79.351562 71 79.371094 70.574219 78.96875 C 70.152344 78.570312 70.132812 77.898438 70.53125 77.476562 C 70.933594 77.050781 71.601562 77.03125 72.023438 77.433594 C 72.449219 77.832031 72.46875 78.5 72.070312 78.925781 "/>
</g>
</g>
</g>
</g>
<g clip-path="url(#clip61)" clip-rule="nonzero">
<g clip-path="url(#clip62)" clip-rule="nonzero">
<g clip-path="url(#clip63)" clip-rule="nonzero">
<g clip-path="url(#clip64)" clip-rule="nonzero">
<path style=" stroke:none;fill-rule:nonzero;fill:rgb(100%,100%,100%);fill-opacity:1;" d="M 80.136719 76.023438 C 79.734375 76.449219 79.066406 76.46875 78.644531 76.070312 C 78.21875 75.667969 78.199219 75 78.597656 74.574219 C 79 74.148438 79.667969 74.128906 80.09375 74.53125 C 80.519531 74.929688 80.535156 75.601562 80.136719 76.023438 "/>
</g>
</g>
</g>
</g>
<g clip-path="url(#clip65)" clip-rule="nonzero">
<g clip-path="url(#clip66)" clip-rule="nonzero">
<g clip-path="url(#clip67)" clip-rule="nonzero">
<g clip-path="url(#clip68)" clip-rule="nonzero">
<path style=" stroke:none;fill-rule:nonzero;fill:rgb(100%,100%,100%);fill-opacity:1;" d="M 77.378906 78.949219 C 76.980469 79.375 76.3125 79.394531 75.886719 78.992188 C 75.460938 78.59375 75.441406 77.921875 75.839844 77.5 C 76.242188 77.074219 76.910156 77.054688 77.335938 77.457031 C 77.761719 77.855469 77.78125 78.523438 77.378906 78.949219 "/>
</g>
</g>
</g>
</g>
<g clip-path="url(#clip69)" clip-rule="nonzero">
<g clip-path="url(#clip70)" clip-rule="nonzero">
<g clip-path="url(#clip71)" clip-rule="nonzero">
<g clip-path="url(#clip72)" clip-rule="nonzero">
<path style=" stroke:none;fill-rule:nonzero;fill:rgb(100%,100%,100%);fill-opacity:1;" d="M 69.304688 65.8125 C 68.90625 66.238281 68.238281 66.257812 67.8125 65.855469 C 67.386719 65.457031 67.367188 64.789062 67.769531 64.363281 C 68.167969 63.9375 68.835938 63.917969 69.261719 64.320312 C 69.6875 64.71875 69.707031 65.386719 69.304688 65.8125 "/>
</g>
</g>
</g>
</g>
<g clip-path="url(#clip73)" clip-rule="nonzero">
<g clip-path="url(#clip74)" clip-rule="nonzero">
<g clip-path="url(#clip75)" clip-rule="nonzero">
<g clip-path="url(#clip76)" clip-rule="nonzero">
<path style=" stroke:none;fill-rule:nonzero;fill:rgb(100%,100%,100%);fill-opacity:1;" d="M 74.644531 70.847656 C 74.242188 71.269531 73.574219 71.289062 73.152344 70.890625 C 72.726562 70.488281 72.707031 69.820312 73.105469 69.394531 C 73.507812 68.972656 74.175781 68.953125 74.601562 69.351562 C 75.027344 69.753906 75.042969 70.421875 74.644531 70.847656 "/>
</g>
</g>
</g>
</g>
<g clip-path="url(#clip77)" clip-rule="nonzero">
<g clip-path="url(#clip78)" clip-rule="nonzero">
<g clip-path="url(#clip79)" clip-rule="nonzero">
<g clip-path="url(#clip80)" clip-rule="nonzero">
<path style=" stroke:none;fill-rule:nonzero;fill:rgb(100%,100%,100%);fill-opacity:1;" d="M 66.546875 68.738281 C 66.148438 69.160156 65.480469 69.179688 65.054688 68.78125 C 64.628906 68.378906 64.609375 67.710938 65.011719 67.289062 C 65.410156 66.863281 66.078125 66.84375 66.503906 67.242188 C 66.929688 67.644531 66.949219 68.3125 66.546875 68.738281 "/>
</g>
</g>
</g>
</g>
<g clip-path="url(#clip81)" clip-rule="nonzero">
<g clip-path="url(#clip82)" clip-rule="nonzero">
<g clip-path="url(#clip83)" clip-rule="nonzero">
<g clip-path="url(#clip84)" clip-rule="nonzero">
<path style=" stroke:none;fill-rule:nonzero;fill:rgb(100%,100%,100%);fill-opacity:1;" d="M 71.953125 68.355469 C 71.550781 68.777344 70.882812 68.796875 70.457031 68.398438 C 70.035156 67.996094 70.015625 67.328125 70.414062 66.902344 C 70.816406 66.480469 71.484375 66.460938 71.90625 66.859375 C 72.332031 67.261719 72.351562 67.929688 71.953125 68.355469 "/>
</g>
</g>
</g>
</g>
<g clip-path="url(#clip85)" clip-rule="nonzero">
<g clip-path="url(#clip86)" clip-rule="nonzero">
<g clip-path="url(#clip87)" clip-rule="nonzero">
<g clip-path="url(#clip88)" clip-rule="nonzero">
<path style=" stroke:none;fill-rule:nonzero;fill:rgb(100%,100%,100%);fill-opacity:1;" d="M 69.195312 71.277344 C 68.792969 71.703125 68.125 71.722656 67.699219 71.324219 C 67.277344 70.921875 67.257812 70.253906 67.65625 69.828125 C 68.058594 69.40625 68.726562 69.382812 69.152344 69.785156 C 69.574219 70.183594 69.59375 70.855469 69.195312 71.277344 "/>
</g>
</g>
</g>
</g>
<g clip-path="url(#clip89)" clip-rule="nonzero">
<g clip-path="url(#clip90)" clip-rule="nonzero">
<g clip-path="url(#clip91)" clip-rule="nonzero">
<g clip-path="url(#clip92)" clip-rule="nonzero">
<path style=" stroke:none;fill-rule:nonzero;fill:rgb(100%,100%,100%);fill-opacity:1;" d="M 71.886719 73.769531 C 71.488281 74.195312 70.820312 74.214844 70.394531 73.8125 C 69.96875 73.414062 69.949219 72.746094 70.347656 72.320312 C 70.75 71.894531 71.417969 71.875 71.84375 72.277344 C 72.269531 72.675781 72.289062 73.347656 71.886719 73.769531 "/>
</g>
</g>
</g>
</g>
<g clip-path="url(#clip93)" clip-rule="nonzero">
<g clip-path="url(#clip94)" clip-rule="nonzero">
<g clip-path="url(#clip95)" clip-rule="nonzero">
<g clip-path="url(#clip96)" clip-rule="nonzero">
<path style=" stroke:none;fill-rule:nonzero;fill:rgb(100%,100%,100%);fill-opacity:1;" d="M 61.605469 73.980469 C 61.203125 74.40625 60.535156 74.425781 60.109375 74.023438 C 59.683594 73.625 59.667969 72.957031 60.066406 72.53125 C 60.46875 72.105469 61.136719 72.085938 61.558594 72.488281 C 61.984375 72.886719 62.003906 73.558594 61.605469 73.980469 "/>
</g>
</g>
</g>
</g>
<g clip-path="url(#clip97)" clip-rule="nonzero">
<g clip-path="url(#clip98)" clip-rule="nonzero">
<g clip-path="url(#clip99)" clip-rule="nonzero">
<g clip-path="url(#clip100)" clip-rule="nonzero">
<path style=" stroke:none;fill-rule:nonzero;fill:rgb(100%,100%,100%);fill-opacity:1;" d="M 64.273438 76.5 C 63.875 76.921875 63.203125 76.941406 62.78125 76.542969 C 62.355469 76.140625 62.335938 75.472656 62.734375 75.046875 C 63.136719 74.625 63.804688 74.605469 64.230469 75.003906 C 64.652344 75.40625 64.675781 76.074219 64.273438 76.5 "/>
</g>
</g>
</g>
</g>
<g clip-path="url(#clip101)" clip-rule="nonzero">
<g clip-path="url(#clip102)" clip-rule="nonzero">
<g clip-path="url(#clip103)" clip-rule="nonzero">
<g clip-path="url(#clip104)" clip-rule="nonzero">
<path style=" stroke:none;fill-rule:nonzero;fill:rgb(100%,100%,100%);fill-opacity:1;" d="M 66.941406 79.015625 C 66.542969 79.4375 65.875 79.460938 65.449219 79.058594 C 65.023438 78.660156 65.003906 77.988281 65.40625 77.566406 C 65.804688 77.140625 66.472656 77.121094 66.898438 77.519531 C 67.324219 77.921875 67.34375 78.589844 66.941406 79.015625 "/>
</g>
</g>
</g>
</g>
<g clip-path="url(#clip105)" clip-rule="nonzero">
<g clip-path="url(#clip106)" clip-rule="nonzero">
<g clip-path="url(#clip107)" clip-rule="nonzero">
<g clip-path="url(#clip108)" clip-rule="nonzero">
<path style=" stroke:none;fill-rule:nonzero;fill:rgb(100%,100%,100%);fill-opacity:1;" d="M 59.226562 76.5 C 58.828125 76.925781 58.160156 76.945312 57.734375 76.546875 C 57.308594 76.144531 57.289062 75.476562 57.691406 75.050781 C 58.089844 74.628906 58.757812 74.605469 59.183594 75.007812 C 59.609375 75.40625 59.628906 76.078125 59.226562 76.5 "/>
</g>
</g>
</g>
</g>
<g clip-path="url(#clip109)" clip-rule="nonzero">
<g clip-path="url(#clip110)" clip-rule="nonzero">
<g clip-path="url(#clip111)" clip-rule="nonzero">
<g clip-path="url(#clip112)" clip-rule="nonzero">
<path style=" stroke:none;fill-rule:nonzero;fill:rgb(100%,100%,100%);fill-opacity:1;" d="M 61.898438 79.019531 C 61.496094 79.441406 60.828125 79.460938 60.402344 79.0625 C 59.980469 78.660156 59.960938 77.992188 60.359375 77.570312 C 60.761719 77.144531 61.429688 77.125 61.851562 77.523438 C 62.277344 77.925781 62.296875 78.59375 61.898438 79.019531 "/>
</g>
</g>
</g>
</g>
<g clip-path="url(#clip113)" clip-rule="nonzero">
<g clip-path="url(#clip114)" clip-rule="nonzero">
<g clip-path="url(#clip115)" clip-rule="nonzero">
<g clip-path="url(#clip116)" clip-rule="nonzero">
<path style=" stroke:none;fill-rule:nonzero;fill:rgb(100%,100%,100%);fill-opacity:1;" d="M 56.769531 79.109375 C 56.371094 79.53125 55.703125 79.550781 55.277344 79.152344 C 54.851562 78.75 54.832031 78.082031 55.234375 77.660156 C 55.632812 77.234375 56.300781 77.214844 56.726562 77.613281 C 57.152344 78.015625 57.171875 78.683594 56.769531 79.109375 "/>
</g>
</g>
</g>
</g>
<g clip-path="url(#clip117)" clip-rule="nonzero">
<g clip-path="url(#clip118)" clip-rule="nonzero">
<g clip-path="url(#clip119)" clip-rule="nonzero">
<g clip-path="url(#clip120)" clip-rule="nonzero">
<path style=" stroke:none;fill-rule:nonzero;fill:rgb(100%,100%,100%);fill-opacity:1;" d="M 76.5625 53.066406 C 76.164062 53.488281 75.496094 53.507812 75.070312 53.109375 C 74.644531 52.707031 74.625 52.039062 75.023438 51.613281 C 75.425781 51.191406 76.09375 51.171875 76.519531 51.570312 C 76.945312 51.972656 76.964844 52.640625 76.5625 53.066406 "/>
</g>
</g>
</g>
</g>
<g clip-path="url(#clip121)" clip-rule="nonzero">
<g clip-path="url(#clip122)" clip-rule="nonzero">
<g clip-path="url(#clip123)" clip-rule="nonzero">
<g clip-path="url(#clip124)" clip-rule="nonzero">
<path style=" stroke:none;fill-rule:nonzero;fill:rgb(100%,100%,100%);fill-opacity:1;" d="M 74.105469 55.671875 C 73.707031 56.097656 73.035156 56.117188 72.613281 55.714844 C 72.1875 55.316406 72.167969 54.644531 72.566406 54.222656 C 72.96875 53.796875 73.636719 53.777344 74.0625 54.179688 C 74.488281 54.578125 74.507812 55.246094 74.105469 55.671875 "/>
</g>
</g>
</g>
</g>
<g clip-path="url(#clip125)" clip-rule="nonzero">
<g clip-path="url(#clip126)" clip-rule="nonzero">
<g clip-path="url(#clip127)" clip-rule="nonzero">
<g clip-path="url(#clip128)" clip-rule="nonzero">
<path style=" stroke:none;fill-rule:nonzero;fill:rgb(100%,100%,100%);fill-opacity:1;" d="M 66.785156 63.4375 C 66.382812 63.859375 65.714844 63.878906 65.292969 63.480469 C 64.867188 63.078125 64.847656 62.410156 65.246094 61.984375 C 65.648438 61.5625 66.316406 61.542969 66.742188 61.941406 C 67.167969 62.34375 67.183594 63.011719 66.785156 63.4375 "/>
</g>
</g>
</g>
</g>
<g clip-path="url(#clip129)" clip-rule="nonzero">
<g clip-path="url(#clip130)" clip-rule="nonzero">
<g clip-path="url(#clip131)" clip-rule="nonzero">
<g clip-path="url(#clip132)" clip-rule="nonzero">
<path style=" stroke:none;fill-rule:nonzero;fill:rgb(100%,100%,100%);fill-opacity:1;" d="M 64.027344 66.359375 C 63.628906 66.785156 62.960938 66.804688 62.535156 66.402344 C 62.109375 66.003906 62.089844 65.335938 62.488281 64.910156 C 62.890625 64.484375 63.558594 64.464844 63.984375 64.867188 C 64.410156 65.265625 64.429688 65.9375 64.027344 66.359375 "/>
</g>
</g>
</g>
</g>
<g clip-path="url(#clip133)" clip-rule="nonzero">
<g clip-path="url(#clip134)" clip-rule="nonzero">
<g clip-path="url(#clip135)" clip-rule="nonzero">
<g clip-path="url(#clip136)" clip-rule="nonzero">
<path style=" stroke:none;fill-rule:nonzero;fill:rgb(100%,100%,100%);fill-opacity:1;" d="M 56.707031 74.125 C 56.304688 74.550781 55.636719 74.570312 55.214844 74.167969 C 54.789062 73.769531 54.769531 73.101562 55.167969 72.675781 C 55.570312 72.25 56.238281 72.230469 56.664062 72.632812 C 57.089844 73.03125 57.105469 73.699219 56.707031 74.125 "/>
</g>
</g>
</g>
</g>
<g clip-path="url(#clip137)" clip-rule="nonzero">
<g clip-path="url(#clip138)" clip-rule="nonzero">
<g clip-path="url(#clip139)" clip-rule="nonzero">
<g clip-path="url(#clip140)" clip-rule="nonzero">
<path style=" stroke:none;fill-rule:nonzero;fill:rgb(100%,100%,100%);fill-opacity:1;" d="M 54.25 76.730469 C 53.847656 77.15625 53.179688 77.175781 52.757812 76.773438 C 52.332031 76.375 52.3125 75.707031 52.710938 75.28125 C 53.113281 74.855469 53.78125 74.835938 54.207031 75.238281 C 54.628906 75.636719 54.648438 76.304688 54.25 76.730469 "/>
</g>
</g>
</g>
</g>
<g clip-path="url(#clip141)" clip-rule="nonzero">
<g clip-path="url(#clip142)" clip-rule="nonzero">
<g clip-path="url(#clip143)" clip-rule="nonzero">
<g clip-path="url(#clip144)" clip-rule="nonzero">
<path style=" stroke:none;fill-rule:nonzero;fill:rgb(100%,100%,100%);fill-opacity:1;" d="M 74.042969 50.6875 C 73.640625 51.113281 72.972656 51.132812 72.550781 50.730469 C 72.125 50.332031 72.105469 49.664062 72.503906 49.238281 C 72.90625 48.8125 73.574219 48.792969 74 49.195312 C 74.421875 49.59375 74.441406 50.261719 74.042969 50.6875 "/>
</g>
</g>
</g>
</g>
<g clip-path="url(#clip145)" clip-rule="nonzero">
<g clip-path="url(#clip146)" clip-rule="nonzero">
<g clip-path="url(#clip147)" clip-rule="nonzero">
<g clip-path="url(#clip148)" clip-rule="nonzero">
<path style=" stroke:none;fill-rule:nonzero;fill:rgb(100%,100%,100%);fill-opacity:1;" d="M 64.265625 61.058594 C 63.863281 61.484375 63.195312 61.503906 62.769531 61.101562 C 62.347656 60.703125 62.328125 60.035156 62.726562 59.609375 C 63.128906 59.183594 63.796875 59.164062 64.21875 59.566406 C 64.644531 59.964844 64.664062 60.632812 64.265625 61.058594 "/>
</g>
</g>
</g>
</g>
<g clip-path="url(#clip149)" clip-rule="nonzero">
<g clip-path="url(#clip150)" clip-rule="nonzero">
<g clip-path="url(#clip151)" clip-rule="nonzero">
<g clip-path="url(#clip152)" clip-rule="nonzero">
<path style=" stroke:none;fill-rule:nonzero;fill:rgb(100%,100%,100%);fill-opacity:1;" d="M 61.507812 63.984375 C 61.105469 64.40625 60.4375 64.429688 60.011719 64.027344 C 59.589844 63.628906 59.570312 62.957031 59.96875 62.535156 C 60.371094 62.109375 61.039062 62.089844 61.460938 62.488281 C 61.886719 62.890625 61.90625 63.558594 61.507812 63.984375 "/>
</g>
</g>
</g>
</g>
<g clip-path="url(#clip153)" clip-rule="nonzero">
<g clip-path="url(#clip154)" clip-rule="nonzero">
<g clip-path="url(#clip155)" clip-rule="nonzero">
<g clip-path="url(#clip156)" clip-rule="nonzero">
<path style=" stroke:none;fill-rule:nonzero;fill:rgb(100%,100%,100%);fill-opacity:1;" d="M 61.859375 58.792969 C 61.460938 59.21875 60.792969 59.238281 60.367188 58.835938 C 59.941406 58.4375 59.921875 57.769531 60.324219 57.34375 C 60.722656 56.917969 61.394531 56.898438 61.816406 57.300781 C 62.242188 57.699219 62.261719 58.367188 61.859375 58.792969 "/>
</g>
</g>
</g>
</g>
<g clip-path="url(#clip157)" clip-rule="nonzero">
<g clip-path="url(#clip158)" clip-rule="nonzero">
<g clip-path="url(#clip159)" clip-rule="nonzero">
<g clip-path="url(#clip160)" clip-rule="nonzero">
<path style=" stroke:none;fill-rule:nonzero;fill:rgb(100%,100%,100%);fill-opacity:1;" d="M 59.105469 61.71875 C 58.703125 62.140625 58.035156 62.160156 57.609375 61.761719 C 57.1875 61.363281 57.164062 60.691406 57.566406 60.269531 C 57.964844 59.84375 58.636719 59.824219 59.058594 60.222656 C 59.484375 60.625 59.503906 61.292969 59.105469 61.71875 "/>
</g>
</g>
</g>
</g>
<g clip-path="url(#clip161)" clip-rule="nonzero">
<g clip-path="url(#clip162)" clip-rule="nonzero">
<g clip-path="url(#clip163)" clip-rule="nonzero">
<g clip-path="url(#clip164)" clip-rule="nonzero">
<path style=" stroke:none;fill-rule:nonzero;fill:rgb(100%,100%,100%);fill-opacity:1;" d="M 59.339844 56.417969 C 58.941406 56.839844 58.269531 56.859375 57.847656 56.460938 C 57.421875 56.058594 57.402344 55.390625 57.800781 54.964844 C 58.203125 54.542969 58.871094 54.523438 59.296875 54.921875 C 59.722656 55.324219 59.742188 55.992188 59.339844 56.417969 "/>
</g>
</g>
</g>
</g>
<g clip-path="url(#clip165)" clip-rule="nonzero">
<g clip-path="url(#clip166)" clip-rule="nonzero">
<g clip-path="url(#clip167)" clip-rule="nonzero">
<g clip-path="url(#clip168)" clip-rule="nonzero">
<path style=" stroke:none;fill-rule:nonzero;fill:rgb(100%,100%,100%);fill-opacity:1;" d="M 56.582031 59.339844 C 56.183594 59.765625 55.515625 59.785156 55.089844 59.386719 C 54.664062 58.984375 54.644531 58.316406 55.046875 57.890625 C 55.445312 57.464844 56.113281 57.445312 56.539062 57.847656 C 56.964844 58.246094 56.984375 58.917969 56.582031 59.339844 "/>
</g>
</g>
</g>
</g>
<g clip-path="url(#clip169)" clip-rule="nonzero">
<g clip-path="url(#clip170)" clip-rule="nonzero">
<g clip-path="url(#clip171)" clip-rule="nonzero">
<g clip-path="url(#clip172)" clip-rule="nonzero">
<path style=" stroke:none;fill-rule:nonzero;fill:rgb(100%,100%,100%);fill-opacity:1;" d="M 56.820312 54.039062 C 56.417969 54.464844 55.75 54.484375 55.324219 54.082031 C 54.902344 53.683594 54.882812 53.015625 55.28125 52.589844 C 55.683594 52.164062 56.351562 52.144531 56.777344 52.546875 C 57.199219 52.945312 57.21875 53.617188 56.820312 54.039062 "/>
</g>
</g>
</g>
</g>
<g clip-path="url(#clip173)" clip-rule="nonzero">
<g clip-path="url(#clip174)" clip-rule="nonzero">
<g clip-path="url(#clip175)" clip-rule="nonzero">
<g clip-path="url(#clip176)" clip-rule="nonzero">
<path style=" stroke:none;fill-rule:nonzero;fill:rgb(100%,100%,100%);fill-opacity:1;" d="M 54.0625 56.964844 C 53.660156 57.390625 52.992188 57.410156 52.570312 57.007812 C 52.144531 56.609375 52.125 55.9375 52.523438 55.515625 C 52.925781 55.089844 53.59375 55.070312 54.019531 55.472656 C 54.441406 55.871094 54.460938 56.539062 54.0625 56.964844 "/>
</g>
</g>
</g>
</g>
<g clip-path="url(#clip177)" clip-rule="nonzero">
<g clip-path="url(#clip178)" clip-rule="nonzero">
<g clip-path="url(#clip179)" clip-rule="nonzero">
<g clip-path="url(#clip180)" clip-rule="nonzero">
<path style=" stroke:none;fill-rule:nonzero;fill:rgb(100%,100%,100%);fill-opacity:1;" d="M 54.414062 51.773438 C 54.015625 52.199219 53.347656 52.21875 52.921875 51.816406 C 52.5 51.417969 52.476562 50.75 52.878906 50.324219 C 53.277344 49.898438 53.949219 49.878906 54.371094 50.28125 C 54.796875 50.679688 54.816406 51.347656 54.414062 51.773438 "/>
</g>
</g>
</g>
</g>
<g clip-path="url(#clip181)" clip-rule="nonzero">
<g clip-path="url(#clip182)" clip-rule="nonzero">
<g clip-path="url(#clip183)" clip-rule="nonzero">
<g clip-path="url(#clip184)" clip-rule="nonzero">
<path style=" stroke:none;fill-rule:nonzero;fill:rgb(100%,100%,100%);fill-opacity:1;" d="M 51.660156 54.699219 C 51.257812 55.121094 50.589844 55.144531 50.164062 54.742188 C 49.742188 54.34375 49.71875 53.671875 50.121094 53.25 C 50.519531 52.824219 51.191406 52.804688 51.613281 53.207031 C 52.039062 53.605469 52.058594 54.273438 51.660156 54.699219 "/>
</g>
</g>
</g>
</g>
<g clip-path="url(#clip185)" clip-rule="nonzero">
<g clip-path="url(#clip186)" clip-rule="nonzero">
<g clip-path="url(#clip187)" clip-rule="nonzero">
<g clip-path="url(#clip188)" clip-rule="nonzero">
<path style=" stroke:none;fill-rule:nonzero;fill:rgb(100%,100%,100%);fill-opacity:1;" d="M 51.894531 49.398438 C 51.496094 49.820312 50.828125 49.839844 50.402344 49.441406 C 49.976562 49.039062 49.957031 48.371094 50.359375 47.949219 C 50.757812 47.523438 51.425781 47.503906 51.851562 47.902344 C 52.277344 48.304688 52.296875 48.972656 51.894531 49.398438 "/>
</g>
</g>
</g>
</g>
<g clip-path="url(#clip189)" clip-rule="nonzero">
<g clip-path="url(#clip190)" clip-rule="nonzero">
<g clip-path="url(#clip191)" clip-rule="nonzero">
<g clip-path="url(#clip192)" clip-rule="nonzero">
<path style=" stroke:none;fill-rule:nonzero;fill:rgb(100%,100%,100%);fill-opacity:1;" d="M 49.136719 52.320312 C 48.738281 52.746094 48.070312 52.765625 47.644531 52.367188 C 47.21875 51.964844 47.199219 51.296875 47.601562 50.871094 C 48 50.449219 48.667969 50.429688 49.09375 50.828125 C 49.519531 51.230469 49.539062 51.898438 49.136719 52.320312 "/>
</g>
</g>
</g>
</g>
<g clip-path="url(#clip193)" clip-rule="nonzero">
<g clip-path="url(#clip194)" clip-rule="nonzero">
<g clip-path="url(#clip195)" clip-rule="nonzero">
<g clip-path="url(#clip196)" clip-rule="nonzero">
<path style=" stroke:none;fill-rule:nonzero;fill:rgb(100%,100%,100%);fill-opacity:1;" d="M 49.375 47.019531 C 48.972656 47.445312 48.304688 47.464844 47.878906 47.0625 C 47.457031 46.664062 47.4375 45.996094 47.835938 45.570312 C 48.238281 45.144531 48.90625 45.125 49.332031 45.527344 C 49.753906 45.925781 49.773438 46.597656 49.375 47.019531 "/>
</g>
</g>
</g>
</g>
<g clip-path="url(#clip197)" clip-rule="nonzero">
<g clip-path="url(#clip198)" clip-rule="nonzero">
<g clip-path="url(#clip199)" clip-rule="nonzero">
<g clip-path="url(#clip200)" clip-rule="nonzero">
<path style=" stroke:none;fill-rule:nonzero;fill:rgb(100%,100%,100%);fill-opacity:1;" d="M 46.617188 49.945312 C 46.21875 50.371094 45.546875 50.390625 45.125 49.988281 C 44.699219 49.589844 44.679688 48.921875 45.078125 48.496094 C 45.480469 48.070312 46.148438 48.050781 46.574219 48.453125 C 46.996094 48.851562 47.019531 49.519531 46.617188 49.945312 "/>
</g>
</g>
</g>
</g>
<g clip-path="url(#clip201)" clip-rule="nonzero">
<g clip-path="url(#clip202)" clip-rule="nonzero">
<g clip-path="url(#clip203)" clip-rule="nonzero">
<g clip-path="url(#clip204)" clip-rule="nonzero">
<path style=" stroke:none;fill-rule:nonzero;fill:rgb(100%,100%,100%);fill-opacity:1;" d="M 46.660156 44.464844 C 46.261719 44.886719 45.59375 44.90625 45.167969 44.507812 C 44.742188 44.105469 44.722656 43.4375 45.125 43.011719 C 45.523438 42.589844 46.195312 42.570312 46.617188 42.96875 C 47.042969 43.371094 47.0625 44.039062 46.660156 44.464844 "/>
</g>
</g>
</g>
</g>
<g clip-path="url(#clip205)" clip-rule="nonzero">
<g clip-path="url(#clip206)" clip-rule="nonzero">
<g clip-path="url(#clip207)" clip-rule="nonzero">
<g clip-path="url(#clip208)" clip-rule="nonzero">
<path style=" stroke:none;fill-rule:nonzero;fill:rgb(100%,100%,100%);fill-opacity:1;" d="M 43.90625 47.386719 C 43.503906 47.8125 42.835938 47.832031 42.410156 47.429688 C 41.988281 47.03125 41.964844 46.363281 42.367188 45.9375 C 42.765625 45.511719 43.4375 45.492188 43.859375 45.894531 C 44.285156 46.292969 44.304688 46.960938 43.90625 47.386719 "/>
</g>
</g>
</g>
</g>
<g clip-path="url(#clip209)" clip-rule="nonzero">
<g clip-path="url(#clip210)" clip-rule="nonzero">
<g clip-path="url(#clip211)" clip-rule="nonzero">
<g clip-path="url(#clip212)" clip-rule="nonzero">
<path style=" stroke:none;fill-rule:nonzero;fill:rgb(100%,100%,100%);fill-opacity:1;" d="M 44.140625 42.085938 C 43.742188 42.511719 43.070312 42.53125 42.648438 42.128906 C 42.222656 41.730469 42.203125 41.0625 42.601562 40.636719 C 43.003906 40.210938 43.671875 40.191406 44.097656 40.59375 C 44.523438 40.992188 44.542969 41.660156 44.140625 42.085938 "/>
</g>
</g>
</g>
</g>
<g clip-path="url(#clip213)" clip-rule="nonzero">
<g clip-path="url(#clip214)" clip-rule="nonzero">
<g clip-path="url(#clip215)" clip-rule="nonzero">
<g clip-path="url(#clip216)" clip-rule="nonzero">
<path style=" stroke:none;fill-rule:nonzero;fill:rgb(100%,100%,100%);fill-opacity:1;" d="M 41.382812 45.011719 C 40.984375 45.433594 40.316406 45.453125 39.890625 45.054688 C 39.464844 44.652344 39.445312 43.984375 39.847656 43.5625 C 40.246094 43.136719 40.914062 43.117188 41.339844 43.515625 C 41.765625 43.917969 41.785156 44.585938 41.382812 45.011719 "/>
</g>
</g>
</g>
</g>
<g clip-path="url(#clip217)" clip-rule="nonzero">
<g clip-path="url(#clip218)" clip-rule="nonzero">
<g clip-path="url(#clip219)" clip-rule="nonzero">
<g clip-path="url(#clip220)" clip-rule="nonzero">
<path style=" stroke:none;fill-rule:nonzero;fill:rgb(100%,100%,100%);fill-opacity:1;" d="M 51.730469 74.355469 C 51.328125 74.777344 50.660156 74.796875 50.234375 74.398438 C 49.8125 73.996094 49.792969 73.328125 50.191406 72.90625 C 50.589844 72.480469 51.261719 72.460938 51.683594 72.859375 C 52.109375 73.261719 52.128906 73.929688 51.730469 74.355469 "/>
</g>
</g>
</g>
</g>
</g>
</svg>
