<?xml version="1.0" encoding="UTF-8"?>
<svg xmlns="http://www.w3.org/2000/svg" xmlns:xlink="http://www.w3.org/1999/xlink" width="300pt" height="299.999988pt" viewBox="0 0 300 299.999988" version="1.2">
<defs>
<filter id="alpha" filterUnits="objectBoundingBox" x="0%" y="0%" width="100%" height="100%">
  <feColorMatrix type="matrix" in="SourceGraphic" values="0 0 0 0 1 0 0 0 0 1 0 0 0 0 1 0 0 0 1 0"/>
</filter>
<mask id="mask0">
  <g filter="url(#alpha)">
<rect x="0" y="0" width="300" height="299.999988" style="fill:rgb(0%,0%,0%);fill-opacity:0.2;stroke:none;"/>
  </g>
</mask>
<clipPath id="clip2">
  <path d="M 0.945312 1 L 292.34375 1 L 292.34375 269 L 0.945312 269 Z M 0.945312 1 "/>
</clipPath>
<clipPath id="clip1">
  <rect x="0" y="0" width="294" height="270"/>
</clipPath>
<g id="surface5" clip-path="url(#clip1)">
<g clip-path="url(#clip2)" clip-rule="nonzero">
<path style=" stroke:none;fill-rule:nonzero;fill:rgb(100%,100%,100%);fill-opacity:1;" d="M 29.671875 191.753906 C 32.328125 185.488281 34.253906 180.625 37.609375 173.527344 C 37.347656 173.921875 37.082031 174.300781 36.558594 175.339844 C 40.148438 167.902344 41.210938 165.628906 45.742188 156.558594 C 42.519531 163.484375 37.332031 174.644531 32.972656 184.054688 C 33.195312 183.804688 34.109375 181.703125 34.816406 180.308594 C 33.652344 182.910156 31.046875 188.695312 29.671875 191.753906 Z M 39.246094 172.003906 C 39.296875 172.316406 38.367188 173.566406 37.425781 175.761719 C 36.875 176.589844 39.980469 170.359375 38.195312 173.816406 C 39.703125 170.136719 43.464844 162.695312 45.324219 158.6875 C 46.292969 157.203125 44.3125 161.171875 42.324219 165.179688 C 40.359375 169.214844 38.40625 173.316406 39.246094 172.003906 Z M 32.945312 190.96875 C 32.773438 191.492188 32.605469 192.003906 32.707031 192.003906 C 31.292969 195.160156 31.910156 192.871094 29.90625 197.589844 C 28.832031 199.496094 32.132812 192.726562 32.945312 190.96875 Z M 56.445312 145.636719 C 49.003906 160.371094 43.515625 171.109375 36.128906 186.707031 C 37.320312 183.332031 42.085938 174.367188 43.632812 170.675781 C 41.484375 174.789062 38.917969 179.757812 36.167969 185.566406 C 38.601562 180.191406 41.957031 173.617188 44.917969 167.679688 C 47.996094 161.789062 50.71875 156.558594 51.949219 153.863281 C 52.160156 154.007812 54.742188 148.371094 56.445312 145.636719 Z M 91.363281 262.714844 C 89.753906 262.621094 89.308594 262.4375 85.117188 262.582031 C 85.285156 262.492188 84.894531 262.453125 84.082031 262.453125 C 84.816406 262.203125 90.015625 262.320312 90.328125 262.214844 C 89.804688 262.503906 95.070312 262.542969 99.695312 262.597656 C 99.015625 262.78125 93.1875 262.425781 91.363281 262.714844 Z M 164.941406 67.816406 C 162.792969 64.613281 159.175781 58.789062 158.5625 58.328125 C 160.671875 61.574219 165.347656 68.59375 164.941406 67.816406 Z M 145.671875 39.457031 C 137.746094 28.335938 145.582031 39.679688 148.699219 43.675781 C 146.65625 40.625 147.019531 41.386719 145.671875 39.457031 Z M 133.410156 22.710938 C 132.964844 22.1875 131.828125 20.6875 130.386719 18.742188 C 130.203125 18.507812 129.992188 18.230469 129.785156 17.941406 L 129.785156 17.929688 L 129.785156 17.941406 C 129.703125 17.847656 129.691406 17.824219 129.664062 17.847656 C 129.429688 18.230469 129.21875 18.585938 129.128906 18.730469 C 129.011719 18.898438 129.050781 18.753906 129.429688 17.953125 C 110.265625 52.308594 93.328125 82.234375 75.148438 114.292969 C 81.621094 102.226562 88.875 90.042969 96.527344 76.113281 C 91.457031 84.574219 83.925781 98.386719 79.378906 105.933594 C 80.335938 103.171875 76.917969 109.164062 73.800781 114.75 C 74.007812 114.238281 74.21875 113.738281 74.113281 113.726562 C 70.851562 119.5625 68.742188 123.425781 65.691406 129.3125 C 67.394531 125.882812 61.488281 136.1875 60.070312 139.300781 C 59.953125 138.84375 53.207031 151.15625 50.613281 155.535156 C 46.292969 164.351562 40.4375 176.273438 34.085938 189.191406 C 35.261719 186.367188 37.6875 181.308594 40.449219 175.746094 C 43.1875 170.175781 46.199219 164.078125 48.609375 159.1875 C 47.878906 159.871094 43.542969 169.136719 43.867188 167.308594 C 39.007812 177.167969 34.871094 185.289062 30.234375 195.460938 C 31.949219 191.585938 33.808594 187.378906 35.539062 183.503906 C 37.292969 179.652344 38.917969 176.128906 39.980469 173.527344 C 38.550781 175.972656 36.074219 181.910156 34.503906 184.777344 C 34.398438 184.867188 37.1875 178.941406 34.804688 183.765625 C 36.964844 178.441406 41.902344 168.664062 44.773438 161.921875 C 44.578125 162.445312 44.394531 162.945312 44.496094 162.945312 C 45.570312 159.738281 51.191406 149.421875 50.417969 149.554688 C 51.441406 148.160156 52.421875 145.808594 54.347656 142.179688 C 53.667969 142.339844 50.011719 150.722656 49.34375 151.355469 C 47.734375 154.824219 50.535156 149.238281 50.078125 150.554688 C 48.964844 152.761719 48.585938 153.246094 47.195312 156.125 C 47.339844 156.019531 48.101562 154.457031 48.664062 153.351562 C 47.167969 157.28125 43.148438 164.65625 41.378906 168.402344 C 40.070312 171.199219 39.21875 173.015625 38.277344 175.023438 C 38.144531 175.289062 35.761719 180.375 37.75 175.917969 C 41.539062 167.453125 43.03125 165.0625 46.789062 157.085938 C 46.5 157.230469 46.070312 158.742188 44.902344 160.832031 C 45.597656 158.9375 46.671875 156.742188 47.996094 154.195312 C 49.265625 151.339844 47.367188 154.585938 50.574219 148.464844 C 50.589844 148.003906 48.453125 152.722656 48.953125 151.15625 C 53.757812 141.246094 67.238281 114.515625 75.804688 97.96875 C 74.113281 100.332031 72.34375 104.449219 69.832031 108.996094 C 73.863281 100.253906 81.933594 86.664062 86.542969 77.648438 C 86.492188 77.925781 85.574219 79.488281 85.652344 79.542969 C 88.96875 73.773438 97.351562 58.683594 102.433594 49.457031 C 102.066406 49.773438 99.878906 53.9375 98.777344 55.792969 C 96.933594 58.695312 102.484375 49.328125 102.25 49.351562 C 102.851562 48.300781 102.785156 48.65625 102.945312 48.5625 C 104.410156 44.84375 109.386719 37.246094 113.109375 30.347656 C 112.375 31.175781 111.679688 32.570312 112.78125 30.164062 C 114.050781 28.179688 116.054688 24.789062 118.335938 20.726562 C 121.492188 15.011719 125.144531 8.398438 128.734375 1.933594 C 129.808594 3.378906 130.855469 4.796875 131.917969 6.21875 C 131.40625 5.507812 129.808594 3.261719 128.722656 1.734375 C 127.820312 3.324219 127.347656 4.167969 128.710938 1.65625 C 129.195312 2.3125 129.875 3.222656 130.792969 4.457031 C 130.242188 3.695312 129.664062 2.890625 128.710938 1.578125 C 121.714844 14.078125 107.542969 39.390625 98.464844 55.609375 C 100.0625 51.980469 102.945312 47.355469 106.023438 41.914062 C 109.0625 36.472656 112.257812 30.78125 115.519531 24.945312 C 119.839844 17.152344 124.253906 9.160156 128.683594 1.15625 C 132.140625 5.824219 135.613281 10.503906 139.058594 15.167969 C 141.167969 18.03125 143.328125 20.832031 145.332031 23.710938 C 149.351562 29.441406 153.414062 34.988281 157.066406 40.414062 C 156.191406 38.707031 151.59375 32.582031 151.921875 32.503906 C 157.894531 40.703125 157.371094 41.21875 162.898438 49.117188 C 164.703125 51.691406 162.464844 48.195312 163.132812 48.945312 C 168.292969 56.648438 171.148438 61.0625 174.554688 66.515625 C 173.976562 65.832031 172.617188 63.757812 171.566406 62.21875 C 199.246094 105.683594 215.632812 135.175781 240.714844 179.136719 C 242.640625 182.449219 244.972656 186.433594 247.554688 190.847656 C 252.84375 200.546875 259.550781 212.324219 266.679688 224.46875 C 270.28125 230.515625 273.949219 236.679688 277.5625 242.75 C 282.226562 250.375 286.824219 257.878906 291.171875 264.988281 C 283.824219 265.09375 276.882812 265.183594 270.4375 265.277344 C 273.1875 265.289062 275.9375 265.316406 278.664062 265.328125 C 283.050781 265.289062 287.375 265.265625 291.605469 265.222656 C 287.742188 258.914062 284.058594 252.921875 280.785156 247.558594 C 278.414062 243.75 276.398438 240.359375 274.824219 237.675781 C 276.460938 240.160156 278.546875 243.578125 280.941406 247.457031 C 284.320312 252.960938 288.105469 259.152344 291.933594 265.410156 C 285.003906 265.515625 277.980469 265.605469 271.484375 265.710938 C 236.316406 266.40625 203.320312 266.210938 169.5 266.894531 C 168.425781 266.65625 172.734375 266.722656 174.699219 266.671875 C 167.050781 266.40625 150.453125 266.828125 145.542969 266.722656 C 144.140625 266.761719 144.691406 266.921875 144.519531 267.023438 C 143.117188 267 142.566406 266.894531 142.4375 266.761719 C 143.785156 266.644531 146.261719 266.617188 147.636719 266.683594 C 144.441406 266.300781 111.980469 266.589844 110.175781 267.011719 C 109.820312 267.089844 112.453125 267.050781 113.292969 267.039062 C 112.847656 267.210938 108.15625 267.144531 106.007812 267.222656 C 106.308594 266.921875 104.464844 266.25 99.746094 265.988281 C 96.5 266.117188 94.351562 266.316406 90.382812 266.40625 C 90.734375 266.183594 93.527344 266.09375 95.582031 265.972656 C 93.316406 265.761719 88.640625 266.261719 91.417969 265.804688 C 86.453125 266.011719 81.554688 265.761719 76.839844 265.722656 C 78.894531 265.644531 80.140625 265.34375 76.839844 265.355469 C 78.460938 265.066406 78.382812 265.5 80.992188 265.371094 C 82.574219 265.015625 77.007812 265.265625 75.789062 265.144531 C 75.949219 265.015625 79.3125 265.054688 79.957031 264.933594 C 75.882812 265.027344 77.335938 264.765625 79.941406 264.5 C 70.601562 264.726562 74.714844 263.59375 71.597656 263.292969 C 74.46875 263.4375 74.613281 262.976562 76.800781 262.847656 C 77.769531 263.109375 78.710938 263.304688 84.09375 263.476562 C 88.011719 263.292969 95.882812 262.847656 99.707031 263.03125 C 103.402344 262.949219 104.253906 262.699219 106.976562 262.554688 C 106.402344 262.398438 105.355469 262.675781 103.859375 262.53125 C 109.886719 262.109375 126.261719 261.832031 134.015625 261.28125 C 130.59375 261.335938 128.851562 261.480469 124.660156 261.492188 C 123.746094 261.269531 127.359375 261.292969 127.777344 261.148438 C 123.207031 261.136719 124.359375 261.453125 120.496094 261.480469 C 121.214844 261.414062 122.121094 261.253906 120.496094 261.253906 C 126.96875 260.964844 150.53125 260.808594 151.699219 259.769531 C 154.828125 259.886719 156.007812 259.847656 158.980469 259.664062 C 157.027344 259.835938 158.863281 259.847656 158.980469 260.03125 C 162.058594 259.769531 164.195312 259.585938 167.296875 259.324219 C 168.265625 259.390625 171.136719 259.296875 170.429688 259.496094 C 174.738281 259.308594 176.519531 259.246094 180.828125 259.0625 C 181.128906 259.164062 179.847656 259.191406 179.792969 259.285156 C 185.949219 259.308594 192.027344 259.414062 200.609375 259.285156 C 220.859375 258.96875 248.667969 259.324219 260.964844 258.179688 C 263.46875 258.113281 263.21875 258.285156 266.167969 258.179688 C 265.800781 258.285156 264.332031 258.324219 264.085938 258.429688 C 269.847656 258.324219 274.941406 258.21875 278.753906 258.152344 C 275.808594 253.371094 273.515625 249.664062 271.222656 245.96875 C 270.464844 244.667969 271.222656 245.550781 270.34375 244.066406 C 270.136719 244.039062 267.921875 240.554688 265.367188 236.351562 C 262.8125 232.171875 259.996094 227.226562 258.503906 224.351562 C 260.035156 227.519531 255.542969 219.554688 257.246094 222.667969 C 256.171875 221.128906 254.496094 217.632812 253.199219 215.359375 C 250.160156 211.0625 243.425781 199.078125 239.117188 192.136719 C 237.285156 188.734375 231.050781 177.523438 227.589844 172.277344 C 223.019531 163.460938 213.863281 148.464844 206.292969 135.214844 C 206.082031 134.464844 208.714844 139.488281 208.519531 138.75 C 207.484375 136.871094 202.71875 128.484375 201.523438 127.144531 C 200.765625 125.792969 201.8125 127.449219 201.722656 127.027344 C 198.578125 121.863281 196.296875 118.117188 192.527344 111.898438 C 194.191406 115.199219 182.21875 94.917969 175.589844 84.445312 C 174.042969 82 172.234375 78.925781 170.636719 76.503906 C 171.042969 77.375 172.484375 79.660156 173.246094 81.015625 C 163.082031 65.375 149.851562 45.4375 140.746094 32.765625 L 140.929688 32.632812 C 138.285156 28.902344 136.203125 26.15625 132.964844 21.738281 C 132.835938 21.738281 132.691406 21.726562 133.410156 22.710938 Z M 62.730469 119.417969 C 63.542969 117.5 65.902344 112.570312 67.160156 111.109375 C 65.925781 113.410156 64.527344 116.050781 62.730469 119.417969 Z M 180.738281 76.230469 C 186.265625 84.824219 191.164062 93.027344 195.527344 100.308594 C 192.265625 94.996094 182.925781 80.433594 180.738281 76.230469 Z M 210.980469 126.382812 C 209.867188 124.910156 208.191406 121.558594 206.738281 119.179688 C 208.558594 121.886719 209.4375 123.582031 210.980469 126.382812 Z M 222.445312 146.308594 C 225.207031 150.65625 229.699219 158.910156 231.914062 162.539062 C 229.582031 159.121094 225.246094 151.378906 222.445312 146.308594 Z M 138.296875 268.300781 C 133.699219 268.417969 130.699219 268.496094 125.800781 268.628906 C 127.28125 268.40625 137.8125 267.894531 138.296875 268.300781 Z M 195.511719 267.023438 C 199.113281 266.921875 199.519531 267.078125 202.808594 267 C 202.546875 267.105469 194.242188 267.289062 195.511719 267.023438 Z M 274.667969 236.558594 C 279.539062 244.539062 286.023438 255.183594 292.417969 265.671875 C 290.085938 265.710938 287.78125 265.75 285.488281 265.789062 C 287.648438 265.75 289.890625 265.699219 292.351562 265.644531 C 289.0625 260.308594 285.472656 254.472656 281.808594 248.519531 C 279.355469 244.550781 276.945312 240.449219 274.667969 236.558594 Z M 71.441406 105.117188 C 72.359375 102.671875 75.816406 96.445312 78.644531 91.1875 C 83.179688 82.710938 89.570312 71.339844 94.808594 61.929688 C 94.71875 62.863281 91.363281 68.410156 88.851562 72.957031 C 83.886719 81.90625 76.15625 96.089844 71.441406 105.117188 Z M 255.464844 204.332031 C 256.066406 205.042969 258.960938 209.589844 258.609375 209.75 C 256.894531 206.949219 257.417969 207.710938 255.464844 204.332031 Z M 155.980469 267.523438 C 152.367188 267.644531 151.972656 267.472656 148.683594 267.5625 C 149.890625 267.328125 156.742188 267.105469 155.980469 267.523438 Z M 150.753906 267.089844 C 148.882812 267.355469 146.941406 267.15625 142.4375 267.289062 C 143.695312 266.933594 147.9375 267.039062 150.753906 267.089844 Z M 53.457031 140.539062 C 55.828125 136.148438 56.429688 134.503906 58.734375 130.324219 C 59.601562 128.65625 59.808594 128.460938 59.300781 129.433594 C 58.328125 131.363281 54.53125 138.789062 53.457031 140.539062 Z M 130.988281 266.933594 C 130.203125 267.105469 125.144531 267.039062 122.65625 267.128906 C 123.640625 266.828125 127.910156 266.984375 130.988281 266.933594 Z M 100.808594 267.222656 C 96.578125 267.457031 94.664062 267.394531 89.359375 267.539062 C 90.09375 267.261719 96.933594 267.328125 100.808594 267.222656 Z M 37.097656 175.601562 C 38.078125 173.25 39.898438 169.386719 41.96875 165.195312 C 40.960938 167.546875 39.140625 171.398438 37.097656 175.601562 Z M 0.945312 265.804688 C 2.292969 261.480469 5.058594 253.828125 7.414062 247.007812 C 7.152344 247.890625 2.542969 261.375 0.945312 265.804688 Z M 11.515625 236.269531 C 12.300781 233.433594 14.253906 228.515625 16.703125 222.589844 C 15.835938 225.429688 13.585938 230.578125 11.515625 236.269531 Z M 35.5625 185.277344 C 36.730469 182.898438 38.09375 180.175781 38.695312 178.703125 C 40.882812 174.539062 35.09375 186.8125 35.5625 185.277344 Z M 50.796875 263.960938 C 52.488281 264.054688 55.148438 263.832031 59.117188 263.84375 C 60.046875 264.171875 50.167969 264.253906 50.796875 263.960938 Z M 5.265625 260.636719 C 6 258.390625 7.375 254.183594 8.933594 249.414062 C 10.652344 244.707031 12.589844 239.464844 14.304688 235.113281 C 12.195312 241.59375 8.136719 251.820312 5.265625 260.636719 Z M 246.714844 205.832031 C 245.484375 203.347656 251.207031 212.941406 252.097656 214.78125 C 251.351562 213.929688 247.476562 206.699219 246.714844 205.832031 Z M 107.671875 57.25 C 108.539062 55.714844 112.992188 47.800781 113.828125 46.34375 C 112.691406 48.15625 108.5625 55.398438 107.671875 57.25 "/>
</g>
</g>
</defs>
<g id="surface1">
<use xlink:href="#surface5" transform="matrix(1,0,0,1,3,9)" mask="url(#mask0)"/>
</g>
</svg>
