<?xml version="1.0" encoding="UTF-8"?>
<svg xmlns="http://www.w3.org/2000/svg" xmlns:xlink="http://www.w3.org/1999/xlink" width="120pt" height="119.999999pt" viewBox="0 0 120 119.999999" version="1.2">
<defs>
<clipPath id="clip1">
  <path d="M 12 12 L 109.5 12 L 109.5 109.5 L 12 109.5 Z M 12 12 "/>
</clipPath>
</defs>
<g id="surface1">
<g clip-path="url(#clip1)" clip-rule="nonzero">
<path style=" stroke:none;fill-rule:nonzero;fill:rgb(100%,100%,100%);fill-opacity:1;" d="M 60.75 12 C 33.867188 12 12 33.867188 12 60.75 C 12 87.632812 33.867188 109.5 60.75 109.5 C 87.628906 109.5 109.5 87.632812 109.5 60.75 C 109.5 33.867188 87.628906 12 60.75 12 Z M 60.75 102.433594 C 37.765625 102.433594 19.066406 83.734375 19.066406 60.75 C 19.066406 37.765625 37.765625 19.066406 60.75 19.066406 C 83.734375 19.066406 102.433594 37.765625 102.433594 60.75 C 102.433594 83.734375 83.734375 102.433594 60.75 102.433594 Z M 60.75 102.433594 "/>
</g>
<path style=" stroke:none;fill-rule:nonzero;fill:rgb(100%,100%,100%);fill-opacity:1;" d="M 82.601562 57.21875 L 64.796875 57.21875 L 64.796875 38.898438 C 64.796875 36.945312 63.214844 35.367188 61.265625 35.367188 C 59.3125 35.367188 57.734375 36.949219 57.734375 38.898438 L 57.734375 57.21875 L 39.925781 57.21875 C 37.972656 57.21875 36.390625 58.800781 36.390625 60.75 C 36.390625 62.699219 37.976562 64.28125 39.925781 64.28125 L 57.730469 64.28125 L 57.730469 81.574219 C 57.730469 83.527344 59.3125 85.105469 61.261719 85.105469 C 63.214844 85.105469 64.792969 83.523438 64.792969 81.574219 L 64.792969 64.28125 L 82.601562 64.28125 C 84.550781 64.28125 86.128906 62.699219 86.128906 60.75 C 86.128906 58.800781 84.554688 57.21875 82.601562 57.21875 Z M 82.601562 57.21875 "/>
</g>
</svg>
